<?xml version="1.0" encoding="UTF-8" standalone="no"?>
<!-- Created with Inkscape (http://www.inkscape.org/) -->

<svg
   width="73.890694mm"
   height="90.888153mm"
   viewBox="0 0 73.890694 90.888153"
   version="1.1"
   id="svg1"
   inkscape:version="1.3.2 (091e20e, 2023-11-25, custom)"
   sodipodi:docname="magos (1).svg"
   xmlns:inkscape="http://www.inkscape.org/namespaces/inkscape"
   xmlns:sodipodi="http://sodipodi.sourceforge.net/DTD/sodipodi-0.dtd"
   xmlns="http://www.w3.org/2000/svg"
   xmlns:svg="http://www.w3.org/2000/svg">
  <sodipodi:namedview
     id="namedview1"
     pagecolor="#505050"
     bordercolor="#eeeeee"
     borderopacity="1"
     inkscape:showpageshadow="0"
     inkscape:pageopacity="0"
     inkscape:pagecheckerboard="0"
     inkscape:deskcolor="#505050"
     inkscape:document-units="mm"
     inkscape:zoom="0.56281482"
     inkscape:cx="1071.4004"
     inkscape:cy="649.41432"
     inkscape:window-width="1920"
     inkscape:window-height="1017"
     inkscape:window-x="-8"
     inkscape:window-y="-8"
     inkscape:window-maximized="1"
     inkscape:current-layer="layer1" />
  <defs
     id="defs1" />
  <g
     inkscape:label="Capa 1"
     inkscape:groupmode="layer"
     id="layer1"
     transform="translate(-12.823614,-226.78796)">
    <path
       id="path77"
       style="fill:#7c87e7;fill-opacity:1;stroke:#fdfdfd;stroke-width:0.499999;stroke-linecap:butt;stroke-linejoin:round;stroke-miterlimit:3.6;stroke-dasharray:none;stroke-opacity:1"
       d="m 22.219826,227.03797 c 0,0 2.017115,2.04351 -2.321684,6.38228 -4.338799,4.33877 -6.824528,2.76393 -6.824528,2.76393 v 17.17053 l 8.057906,-13.53199 c 0,0 -1.003814,-2.2125 0.889602,-4.10592 1.893417,-1.89341 3.837242,-0.62092 3.837242,-0.62092 l 13.53199,-8.05791 z"
       sodipodi:nodetypes="czccczccc" />
    <path
       style="fill:#7c87e7;fill-opacity:1;stroke:#fdfdfd;stroke-width:0.499999;stroke-linecap:butt;stroke-linejoin:round;stroke-miterlimit:3.6;stroke-dasharray:none;stroke-opacity:1"
       d="m 17.102566,272.23204 c 0,0 15.966422,-2.70952 21.494072,-6.20827 5.527651,-3.49875 11.172329,-32.55163 11.172329,-32.55163 0,0 5.734348,29.09884 11.265935,32.58801 5.531586,3.48917 21.400461,6.17189 21.400461,6.17189 0,0 -16.143902,2.86232 -21.657239,6.37447 -5.513336,3.51214 -11.009164,32.38543 -11.009164,32.38543 0,0 -5.527831,-28.9141 -11.044394,-32.42344 -5.516564,-3.50934 -21.622,-6.33646 -21.622,-6.33646 z"
       id="path82"
       sodipodi:nodetypes="czczczczc" />
    <path
       id="path83"
       style="fill:#7c87e7;fill-opacity:1;stroke:#fdfdfd;stroke-width:0.499999;stroke-linecap:butt;stroke-linejoin:round;stroke-miterlimit:3.6;stroke-dasharray:none;stroke-opacity:1"
       d="m 77.318105,227.03797 c 0,0 -2.017115,2.0435 2.321684,6.38228 4.338799,4.33877 6.824528,2.76392 6.824528,2.76392 v 17.17054 l -8.057906,-13.53199 c 0,0 1.003814,-2.21251 -0.889602,-4.10592 -1.893417,-1.89341 -3.837242,-0.62093 -3.837242,-0.62093 l -13.53199,-8.0579 z"
       sodipodi:nodetypes="czccczccc" />
    <path
       id="path84"
       style="fill:#7c87e7;fill-opacity:1;stroke:#fdfdfd;stroke-width:0.499999;stroke-linecap:butt;stroke-linejoin:round;stroke-miterlimit:3.6;stroke-dasharray:none;stroke-opacity:1"
       d="m 22.219826,317.42611 c 0,0 2.017115,-2.04351 -2.321684,-6.38228 -4.338799,-4.33877 -6.824528,-2.76393 -6.824528,-2.76393 v -17.17053 l 8.057906,13.53199 c 0,0 -1.003814,2.2125 0.889602,4.10592 1.893417,1.89341 3.837242,0.62092 3.837242,0.62092 l 13.53199,8.05791 z"
       sodipodi:nodetypes="czccczccc" />
    <path
       id="path85"
       style="fill:#7c87e7;fill-opacity:1;stroke:#fdfdfd;stroke-width:0.499999;stroke-linecap:butt;stroke-linejoin:round;stroke-miterlimit:3.6;stroke-dasharray:none;stroke-opacity:1"
       d="m 77.318105,317.42611 c 0,0 -2.017115,-2.04351 2.321684,-6.38228 4.338799,-4.33877 6.824528,-2.76393 6.824528,-2.76393 v -17.17053 l -8.057906,13.53199 c 0,0 1.003814,2.2125 -0.889602,4.10593 -1.893417,1.89341 -3.837242,0.62092 -3.837242,0.62092 l -13.53199,8.05791 z"
       sodipodi:nodetypes="czccczccc" />
  </g>
</svg>
