<?xml version="1.0" encoding="UTF-8" standalone="no"?>
<!-- Created with Inkscape (http://www.inkscape.org/) -->

<svg
   width="55.444706mm"
   height="57.588539mm"
   viewBox="0 0 55.444706 57.588539"
   version="1.1"
   id="svg1"
   inkscape:version="1.3.2 (091e20e, 2023-11-25, custom)"
   sodipodi:docname="magos.svg"
   xmlns:inkscape="http://www.inkscape.org/namespaces/inkscape"
   xmlns:sodipodi="http://sodipodi.sourceforge.net/DTD/sodipodi-0.dtd"
   xmlns="http://www.w3.org/2000/svg"
   xmlns:svg="http://www.w3.org/2000/svg">
  <sodipodi:namedview
     id="namedview1"
     pagecolor="#505050"
     bordercolor="#eeeeee"
     borderopacity="1"
     inkscape:showpageshadow="0"
     inkscape:pageopacity="0"
     inkscape:pagecheckerboard="0"
     inkscape:deskcolor="#505050"
     inkscape:document-units="mm"
     inkscape:zoom="0.56281482"
     inkscape:cx="1071.4004"
     inkscape:cy="649.41432"
     inkscape:window-width="1920"
     inkscape:window-height="1017"
     inkscape:window-x="-8"
     inkscape:window-y="-8"
     inkscape:window-maximized="1"
     inkscape:current-layer="layer1" />
  <defs
     id="defs1" />
  <g
     inkscape:label="Capa 1"
     inkscape:groupmode="layer"
     id="layer1"
     transform="translate(-54.255269,-369.57345)">
    <path
       sodipodi:type="star"
       style="fill:#4b1515;fill-opacity:1;stroke:#4d1414;stroke-width:2.523;stroke-linejoin:round;stroke-miterlimit:3.6;stroke-opacity:1"
       id="path13"
       inkscape:flatsided="false"
       sodipodi:sides="6"
       sodipodi:cx="66.285118"
       sodipodi:cy="348.34949"
       sodipodi:r1="123.03976"
       sodipodi:r2="61.519878"
       sodipodi:arg1="0.71706242"
       sodipodi:arg2="1.2406612"
       inkscape:rounded="0.2"
       inkscape:randomized="0.02"
       d="m 157.39344,431.06933 c -9.64725,11.7652 -55.98969,-30.61095 -70.310522,-25.33561 -14.320832,5.27534 -27.521526,65.21104 -42.584485,62.61532 -15.06296,-2.59571 -8.200732,-62.82688 -19.398418,-73.16711 -11.197685,-10.34023 -72.982743,5.20417 -77.514,-9.19678 -4.531257,-14.40094 55.284462,-36.30856 57.9684088,-51.43139 2.6839468,-15.12283 -40.0133078,-53.99735 -29.9269588,-65.55437 10.086349,-11.55702 54.276037,25.0175 68.523344,19.96702 14.247306,-5.05048 30.618405,-65.51773 45.555718,-63.00155 14.937313,2.51618 5.128405,65.49942 16.508233,75.43443 11.37982,9.935 69.05582,-7.98586 74.21758,6.42653 5.16175,14.4124 -51.12457,39.69791 -54.48772,54.59218 -3.36315,14.89426 41.09607,56.88612 31.44882,68.65133 z"
       inkscape:transform-center-x="-0.34480233"
       inkscape:transform-center-y="0.31052312"
       transform="matrix(0.23499543,0,0,0.23499543,66.925267,316.78687)" />
  </g>
</svg>
