<?xml version="1.0" encoding="UTF-8" standalone="no"?>
<!-- Created with Inkscape (http://www.inkscape.org/) -->

<svg
   width="74.449364mm"
   height="76.178978mm"
   viewBox="0 0 74.449364 76.178978"
   version="1.1"
   id="svg1"
   inkscape:version="1.3.2 (091e20e, 2023-11-25, custom)"
   sodipodi:docname="magos (1).svg"
   xmlns:inkscape="http://www.inkscape.org/namespaces/inkscape"
   xmlns:sodipodi="http://sodipodi.sourceforge.net/DTD/sodipodi-0.dtd"
   xmlns="http://www.w3.org/2000/svg"
   xmlns:svg="http://www.w3.org/2000/svg">
  <sodipodi:namedview
     id="namedview1"
     pagecolor="#505050"
     bordercolor="#eeeeee"
     borderopacity="1"
     inkscape:showpageshadow="0"
     inkscape:pageopacity="0"
     inkscape:pagecheckerboard="0"
     inkscape:deskcolor="#505050"
     inkscape:document-units="mm"
     inkscape:zoom="0.56281482"
     inkscape:cx="1071.4004"
     inkscape:cy="649.41432"
     inkscape:window-width="1920"
     inkscape:window-height="1017"
     inkscape:window-x="-8"
     inkscape:window-y="-8"
     inkscape:window-maximized="1"
     inkscape:current-layer="layer1" />
  <defs
     id="defs1" />
  <g
     inkscape:label="Capa 1"
     inkscape:groupmode="layer"
     id="layer1"
     transform="translate(-237.14344,22.649932)">
    <path
       style="fill:#d55050;fill-opacity:1;stroke:#b62b2b;stroke-width:2.67887;stroke-linecap:butt;stroke-linejoin:miter;stroke-miterlimit:3.6;stroke-dasharray:none;stroke-opacity:1"
       d="M 246.34758,48.850494 V -5.9523242 -17.971903 h 10.21588 49.05648 v 66.822397 z"
       id="path180"
       sodipodi:nodetypes="ccccccc" />
    <path
       id="path181"
       style="fill:#d55050;fill-opacity:1;stroke:#b62b2b;stroke-width:2.523;stroke-linecap:butt;stroke-linejoin:round;stroke-miterlimit:3.6;stroke-dasharray:none;stroke-opacity:1"
       d="M 238.40494,-21.388431 V 0.18957883 c 0,0 7.40766,0.60802 9.41338,3.25355497 2.42013,3.1921 -4.70203,11.9961602 -4.70203,11.9961602 l 31.25183,-33.411455 c 0,0 -8.50995,8.0025198 -11.73572,5.78937 -2.71209,-1.86073 -3.55121,-9.20564 -3.55121,-9.20564 z m 35.96318,3.41627 31.25182,33.411455 c 0,0 -7.12216,-8.8040602 -4.70202,-11.9961602 2.00572,-2.64553497 9.41338,-3.25355497 9.41338,-3.25355497 V -21.388431 h -20.67626 c 0,0 -0.8386,7.34491 -3.55069,9.20564 -3.22577,2.2131498 -11.73623,-5.78937 -11.73623,-5.78937 z m 31.25182,33.411455 -31.25182,33.41146 c 0,0 8.51046,-8.00252 11.73623,-5.78937 2.71209,1.86073 3.55069,9.20616 3.55069,9.20616 h 20.67626 v -21.57801 c 0,0 -7.40766,-0.60854 -9.41338,-3.25407 -2.42014,-3.19211 4.70202,-11.99617 4.70202,-11.99617 z m -31.25182,33.41146 -31.25183,-33.41146 c 0,0 7.12216,8.80406 4.70203,11.99617 -2.00572,2.64553 -9.41338,3.25407 -9.41338,3.25407 v 21.57801 h 20.67625 c 0,0 0.83912,-7.34543 3.55121,-9.20616 3.22577,-2.21315 11.73572,5.78937 11.73572,5.78937 z"
       sodipodi:nodetypes="ccsccsccccscccscccscccscccscccsc" />
  </g>
</svg>
