<?xml version="1.0" encoding="UTF-8" standalone="no"?>
<!-- Created with Inkscape (http://www.inkscape.org/) -->

<svg
   width="65.68943mm"
   height="115.79731mm"
   viewBox="0 0 65.68943 115.79731"
   version="1.1"
   id="svg1"
   inkscape:version="1.3.2 (091e20e, 2023-11-25, custom)"
   sodipodi:docname="magos (1).svg"
   xmlns:inkscape="http://www.inkscape.org/namespaces/inkscape"
   xmlns:sodipodi="http://sodipodi.sourceforge.net/DTD/sodipodi-0.dtd"
   xmlns="http://www.w3.org/2000/svg"
   xmlns:svg="http://www.w3.org/2000/svg">
  <sodipodi:namedview
     id="namedview1"
     pagecolor="#505050"
     bordercolor="#eeeeee"
     borderopacity="1"
     inkscape:showpageshadow="0"
     inkscape:pageopacity="0"
     inkscape:pagecheckerboard="0"
     inkscape:deskcolor="#505050"
     inkscape:document-units="mm"
     inkscape:zoom="0.56281482"
     inkscape:cx="1071.4004"
     inkscape:cy="649.41432"
     inkscape:window-width="1920"
     inkscape:window-height="1017"
     inkscape:window-x="-8"
     inkscape:window-y="-8"
     inkscape:window-maximized="1"
     inkscape:current-layer="layer1" />
  <defs
     id="defs1" />
  <g
     inkscape:label="Capa 1"
     inkscape:groupmode="layer"
     id="layer1"
     transform="translate(-229.49109,-173.96969)">
    <rect
       style="fill:#2990aa;fill-opacity:1;stroke:#60c0da;stroke-width:1.10737;stroke-linecap:butt;stroke-linejoin:round;stroke-miterlimit:3.6;stroke-dasharray:none;stroke-opacity:1"
       id="rect88"
       width="64.582054"
       height="111.5556"
       x="230.04478"
       y="177.65771" />
    <rect
       style="fill:#dddddd;fill-opacity:1;stroke:#fdfdfd;stroke-width:2.523;stroke-linecap:butt;stroke-linejoin:round;stroke-miterlimit:3.6;stroke-dasharray:none;stroke-opacity:1"
       id="rect91"
       width="59.194813"
       height="76.947731"
       x="232.7384"
       y="175.2312" />
    <rect
       style="fill:#ececec;fill-opacity:1;stroke:#bcbcbc;stroke-width:2.523;stroke-linecap:butt;stroke-linejoin:round;stroke-miterlimit:3.6;stroke-dasharray:none;stroke-opacity:1"
       id="rect90"
       width="59.194813"
       height="76.947731"
       x="232.7384"
       y="182.85002" />
    <rect
       style="fill:#dddddd;fill-opacity:1;stroke:#fdfdfd;stroke-width:2.523;stroke-linecap:butt;stroke-linejoin:round;stroke-miterlimit:3.6;stroke-dasharray:none;stroke-opacity:1"
       id="rect89"
       width="59.194813"
       height="76.947731"
       x="232.7384"
       y="190.81001" />
    <rect
       style="fill:#8fd3e5;fill-opacity:1;stroke:#60c0da;stroke-width:0.499999;stroke-linecap:butt;stroke-linejoin:round;stroke-miterlimit:3.6;stroke-dasharray:none;stroke-opacity:1"
       id="rect87"
       width="64.582054"
       height="90.971191"
       x="230.04478"
       y="198.24214" />
  </g>
  <path
     style="fill:#4575d3;fill-opacity:1;stroke-width:0.484165;stroke-linecap:round;stroke-linejoin:round;stroke-miterlimit:3.6"
     d="m 34.660256,66.379139 h 14.7768 l 11.10925,41.460291 -14.78737,-0.0394 z"
     id="path104"
     sodipodi:nodetypes="ccccc" />
  <path
     style="fill:#5a83d8;fill-opacity:1;stroke-width:0.484165;stroke-linecap:round;stroke-linejoin:round;stroke-miterlimit:3.6"
     d="M 6.0002359,107.79998 H 53.147346 L 42.048656,66.379139 h -25.8898 z"
     id="path105"
     sodipodi:nodetypes="ccccc" />
  <path
     style="fill:#afafaf;fill-opacity:1;stroke-width:0.484165;stroke-linecap:round;stroke-linejoin:round;stroke-miterlimit:3.6"
     d="m 16.158856,66.379139 h 33.2782 c 0,0 0.84194,4.44306 -0.83619,7.62323 -1.14703,2.17371 -1.65734,1.55407 -2.56374,3.46563 -0.91559,1.9309 -2.01361,1.53192 -2.42054,2.49874 -0.96585,2.29478 -3.0995,1.41471 -3.53849,2.0157 -1.05314,1.44175 -2.89004,1.31189 -3.40807,1.6857 -1.35077,0.97467 -3.20472,-7.3e-4 -4.86489,0.55315 -4.26303,1.42284 -4.38134,-1.33117 -5.74294,-1.31626 -1.50649,0.0165 -1.56112,-1.67378 -2.98624,-2.08968 -1.81969,-0.53105 -1.89793,-1.53163 -2.98125,-2.09462 -1.94531,-1.01094 -1.89382,-2.13286 -2.18391,-3.33691 -0.59817,-2.48274 -1.46623,-1.55905 -1.33211,-2.81169 0.12674,-1.18369 -1.67665,-1.06843 -0.41983,-6.19301 z"
     id="path106"
     sodipodi:nodetypes="ccssssssssssscc" />
  <path
     id="path107"
     style="fill:#fac995;fill-opacity:1;stroke-width:0.321148;stroke-linecap:round;stroke-linejoin:round;stroke-miterlimit:3.6"
     d="m 38.522036,66.379139 h -10.97993 a 5.4899218,5.4899218 0 0 0 5.48988,5.48988 5.4899218,5.4899218 0 0 0 5.49005,-5.48988 z" />
  <path
     style="fill:#5a83d8;fill-opacity:1;stroke-width:0.944782;stroke-linecap:round;stroke-linejoin:round;stroke-miterlimit:3.6"
     d="M 64.368456,66.379139 H 1.1952859 l 17.1172801,-6.70505 16.83065,-29.15157 17.07878,29.58134 z"
     id="path108"
     sodipodi:nodetypes="cccccc" />
  <path
     style="fill:#4575d3;fill-opacity:1;stroke-width:0.484165;stroke-linecap:round;stroke-linejoin:round;stroke-miterlimit:3.6"
     d="m 35.143216,30.522519 9.60776,35.85662 h 19.61748 l -12.14646,-6.27528 z"
     id="path109" />
  <path
     style="fill:#cb9f6f;fill-opacity:1;stroke-width:0.484165;stroke-linecap:round;stroke-linejoin:round;stroke-miterlimit:3.6"
     d="m 28.028116,68.637439 4.43611,3.20214 c 0,0 -3.04115,-0.164 -4.43611,-3.20214 z"
     id="path110"
     sodipodi:nodetypes="ccc" />
  <path
     style="fill:#cb9f6f;fill-opacity:1;stroke-width:0.484165;stroke-linecap:round;stroke-linejoin:round;stroke-miterlimit:3.6"
     d="m 38.056156,68.637439 -4.43612,3.20214 c 0,0 3.04115,-0.164 4.43612,-3.20214 z"
     id="path111"
     sodipodi:nodetypes="ccc" />
</svg>
