<?xml version="1.0" encoding="UTF-8" standalone="no"?>
<!-- Created with Inkscape (http://www.inkscape.org/) -->

<svg
   width="65.689461mm"
   height="115.7973mm"
   viewBox="0 0 65.689461 115.7973"
   version="1.1"
   id="svg1"
   inkscape:version="1.3.2 (091e20e, 2023-11-25, custom)"
   sodipodi:docname="magos (1).svg"
   xmlns:inkscape="http://www.inkscape.org/namespaces/inkscape"
   xmlns:sodipodi="http://sodipodi.sourceforge.net/DTD/sodipodi-0.dtd"
   xmlns="http://www.w3.org/2000/svg"
   xmlns:svg="http://www.w3.org/2000/svg">
  <sodipodi:namedview
     id="namedview1"
     pagecolor="#505050"
     bordercolor="#eeeeee"
     borderopacity="1"
     inkscape:showpageshadow="0"
     inkscape:pageopacity="0"
     inkscape:pagecheckerboard="0"
     inkscape:deskcolor="#505050"
     inkscape:document-units="mm"
     inkscape:zoom="0.79594032"
     inkscape:cx="2857.6263"
     inkscape:cy="844.91259"
     inkscape:window-width="1920"
     inkscape:window-height="991"
     inkscape:window-x="-9"
     inkscape:window-y="-9"
     inkscape:window-maximized="1"
     inkscape:current-layer="svg1" />
  <defs
     id="defs1" />
  <g
     inkscape:label="Capa 1"
     inkscape:groupmode="layer"
     id="layer1"
     transform="translate(-867.2972,-174.52908)">
    <rect
       style="fill:#000000;fill-opacity:0;stroke:#0e3137;stroke-width:1.10737;stroke-linecap:butt;stroke-linejoin:round;stroke-miterlimit:3.6;stroke-dasharray:none;stroke-opacity:1"
       id="rect127-2-9"
       width="64.582054"
       height="111.5556"
       x="867.85089"
       y="178.21709"
       inkscape:export-filename="..\Desktop\REPOSITORIOS_Y_PROYECTOS\WizardWarClient\public\images\decks\5.svg"
       inkscape:export-xdpi="96"
       inkscape:export-ydpi="96" />
    <rect
       style="fill:#dddddd;fill-opacity:1;stroke:#fdfdfd;stroke-width:2.523;stroke-linecap:butt;stroke-linejoin:round;stroke-miterlimit:3.6;stroke-dasharray:none;stroke-opacity:1"
       id="rect128-5-5"
       width="59.194813"
       height="76.947731"
       x="870.54456"
       y="175.79057" />
    <rect
       style="fill:#ececec;fill-opacity:1;stroke:#bcbcbc;stroke-width:2.523;stroke-linecap:butt;stroke-linejoin:round;stroke-miterlimit:3.6;stroke-dasharray:none;stroke-opacity:1"
       id="rect129-0-5"
       width="59.194813"
       height="76.947731"
       x="870.54456"
       y="183.40939" />
    <rect
       style="fill:#dddddd;fill-opacity:1;stroke:#fdfdfd;stroke-width:2.523;stroke-linecap:butt;stroke-linejoin:round;stroke-miterlimit:3.6;stroke-dasharray:none;stroke-opacity:1"
       id="rect130-1-6"
       width="59.194813"
       height="76.947731"
       x="870.54456"
       y="191.3694" />
    <rect
       style="fill:#1d6470;fill-opacity:1;stroke:#0f363e;stroke-width:0.499999;stroke-linecap:butt;stroke-linejoin:round;stroke-miterlimit:3.6;stroke-dasharray:none;stroke-opacity:1"
       id="rect131-7-9"
       width="64.582054"
       height="90.971191"
       x="867.85089"
       y="198.80153" />
  </g>
  <path
     style="fill:#96fdf4;fill-opacity:1;stroke:#00fff3;stroke-width:0.463617;stroke-linecap:round;stroke-linejoin:round;stroke-miterlimit:14.7;stroke-opacity:1;paint-order:markers fill stroke"
     d="M 39.78175,51.730742 H 30.1917 c 0,0 -8.78454,35.08752 -14.65305,40.44128 h 37.77508 c 0,0 -14.02896,-37.25417 -13.53198,-40.44128 z"
     id="path114-9" />
  <path
     id="path100-3"
     style="fill:#9b9b9b;fill-opacity:1;stroke:#7d7d7d;stroke-width:0.463617;stroke-linecap:round;stroke-linejoin:round;stroke-miterlimit:14.7;stroke-opacity:1;paint-order:markers fill stroke"
     d="m 6.0349699,60.686742 c 9.1290801,15.81216 20.0050601,0 20.0050601,0 0,0 -10.87598,-15.81217 -20.0050601,0 z" />
  <path
     id="path100-9-9"
     style="fill:#000000;fill-opacity:1;stroke:#000000;stroke-width:0.0950244;stroke-linecap:round;stroke-linejoin:round;stroke-miterlimit:14.7;stroke-opacity:1;paint-order:markers fill stroke"
     d="m 13.12217,65.625952 c 3.24096,-1.87116 0,-4.10033 0,-4.10033 0,0 -3.2409701,2.22917 0,4.10033 z" />
  <path
     id="path100-9-3-2"
     style="fill:#000000;fill-opacity:1;stroke:#000000;stroke-width:0.0950244;stroke-linecap:round;stroke-linejoin:round;stroke-miterlimit:14.7;stroke-opacity:1;paint-order:markers fill stroke"
     d="m 13.12217,55.633982 c 3.24096,1.87115 0,4.10034 0,4.10034 0,0 -3.2409701,-2.22919 0,-4.10034 z" />
  <path
     id="path100-5-6"
     style="fill:#96fdf4;fill-opacity:1;stroke:#7d7d7d;stroke-width:0.463617;stroke-linecap:round;stroke-linejoin:round;stroke-miterlimit:14.7;stroke-opacity:1;paint-order:markers fill stroke"
     d="m 35.17844,36.203762 c -15.81213,9.12916 0,20.0051 0,20.0051 0,0 15.81221,-10.87594 0,-20.0051 z" />
  <path
     id="path100-9-0-1"
     style="fill:#00fff3;fill-opacity:1;stroke:#00fff3;stroke-width:0.0950244;stroke-linecap:round;stroke-linejoin:round;stroke-miterlimit:14.7;stroke-opacity:1;paint-order:markers fill stroke"
     d="m 30.23926,43.290992 c 1.87113,3.24093 4.10035,0 4.10035,0 0,0 -2.22922,-3.24093 -4.10035,0 z" />
  <path
     id="path100-9-3-8-4"
     style="fill:#00fff3;fill-opacity:1;stroke:#00fff3;stroke-width:0.0950244;stroke-linecap:round;stroke-linejoin:round;stroke-miterlimit:14.7;stroke-opacity:1;paint-order:markers fill stroke"
     d="m 40.23116,43.290992 c -1.87113,3.24093 -4.10026,0 -4.10026,0 0,0 2.22913,-3.24093 4.10026,0 z" />
  <path
     style="fill:#4e4e4e;fill-opacity:1;stroke:#313131;stroke-width:0.463617;stroke-linecap:round;stroke-linejoin:round;stroke-miterlimit:14.7;stroke-opacity:1;paint-order:markers fill stroke"
     d="m 24.45848,62.629022 c 0,0 12.82504,-1.38527 8.14316,4.24344 -4.68187,5.62873 -2.41233,9.50644 -2.41233,9.50644 l 6.3737,7.77053 v -3.62155 c 0,0 -6.33179,-1.81078 -1.71725,-16.35537 0,0 0.87142,-2.55082 -9.51977,-2.55082 z"
     id="path103-0" />
  <path
     style="fill:#4e4e4e;fill-opacity:1;stroke:#313131;stroke-width:0.463617;stroke-linecap:round;stroke-linejoin:round;stroke-miterlimit:14.7;stroke-opacity:1;paint-order:markers fill stroke"
     d="m 25.53755,59.781832 c 1.97615,-0.36744 6.75181,8.1636 6.75181,8.1636 0,0 -1.77861,-1.09648 2.93617,-1.57847 4.71486,-0.48199 3.03657,10.24376 3.03657,10.24376 h -1.46728 c 0,0 0,-11.59334 -3.15252,-7.80966 -3.1525,3.78366 -7.60227,-8.11432 -7.60227,-8.11432 z"
     id="path112-4" />
  <path
     style="fill:#4e4e4e;fill-opacity:1;stroke:#313131;stroke-width:0.463617;stroke-linecap:round;stroke-linejoin:round;stroke-miterlimit:14.7;stroke-opacity:1;paint-order:markers fill stroke"
     d="m 24.81354,59.143072 c 1.33566,-0.0649 7.00353,2.24681 7.00353,2.24681 5.29695,1.29942 8.30405,3.49076 8.30405,3.49076 0.76113,1.34963 1.23373,11.73008 1.23373,11.73008 l 2.86151,0.0207 c 0,0 -2.52866,-11.24618 -2.81521,-12.15453 -0.61308,-1.94333 -17.84477,-6.66946 -17.84477,-6.66946 z"
     id="path113-3"
     sodipodi:nodetypes="cccccscc" />
  <path
     style="fill:#4e4e4e;fill-opacity:1;stroke:#313131;stroke-width:0.463617;stroke-linecap:round;stroke-linejoin:round;stroke-miterlimit:14.7;stroke-opacity:1;paint-order:markers fill stroke"
     d="m 29.68507,74.612192 c 0,0 -7.36696,16.81731 -10.13811,17.55983 h 2.84899 c 0,0 8.43624,-14.86588 8.1148,-15.3295 z"
     id="path115-9" />
  <path
     style="fill:#4e4e4e;fill-opacity:1;stroke:#313131;stroke-width:0.463617;stroke-linecap:round;stroke-linejoin:round;stroke-miterlimit:14.7;stroke-opacity:1;paint-order:markers fill stroke"
     d="m 26.27183,92.403842 10.52299,-7.28179 v 1.52372 l -8.3101,5.59873 z"
     id="path116-0" />
  <path
     style="fill:#4e4e4e;fill-opacity:1;stroke:#313131;stroke-width:0.463617;stroke-linecap:round;stroke-linejoin:round;stroke-miterlimit:14.7;stroke-opacity:1;paint-order:markers fill stroke"
     d="m 33.34819,75.664512 9.56423,16.56574 h 2.7788 L 33.16301,73.519692 Z"
     id="path117-3" />
  <path
     style="fill:#4e4e4e;fill-opacity:1;stroke:#313131;stroke-width:0.463617;stroke-linecap:round;stroke-linejoin:round;stroke-miterlimit:14.7;stroke-opacity:1;paint-order:markers fill stroke"
     d="m 32.28936,101.12103 4.50546,-12.899178 1.98945,-0.11097 -6.49491,17.581278 z"
     id="path118-3" />
  <path
     style="fill:#4e4e4e;fill-opacity:1;stroke:#313131;stroke-width:0.463617;stroke-linecap:round;stroke-linejoin:round;stroke-miterlimit:14.7;stroke-opacity:1;paint-order:markers fill stroke"
     d="m 46.5522,88.221852 c 0,0 3.58424,2.37704 1.88539,3.97747 l 1.65749,-0.009 c 0,0 0.24885,-3.9682 -1.61589,-3.9682 z"
     id="path119-0" />
  <path
     style="fill:#4e4e4e;fill-opacity:1;stroke:#313131;stroke-width:0.463617;stroke-linecap:round;stroke-linejoin:round;stroke-miterlimit:14.7;stroke-opacity:1;paint-order:markers fill stroke"
     d="m 36.56301,73.722322 c 0,1.77095 -7.31182,11.4373 -7.31182,11.4373 -2.28213,2.03054 -4.61517,11.6445 -4.61517,11.6445 l -1.93224,0.0974 c 0,0 1.75199,-10.55537 5.55289,-12.52028 0,0 9.12095,-13.91458 7.97925,-13.96503 z"
     id="path120-5" />
  <path
     style="fill:#144750;fill-opacity:1;stroke:#114442;stroke-width:0.463617;stroke-linecap:round;stroke-linejoin:round;stroke-miterlimit:14.7;stroke-opacity:1;paint-order:markers fill stroke"
     d="m 17.21446,88.221852 h 14.8431 v -11.61113 h -10.055 z"
     id="path101-2" />
  <path
     style="fill:#144750;fill-opacity:1;stroke:#114442;stroke-width:0.463617;stroke-linecap:round;stroke-linejoin:round;stroke-miterlimit:14.7;stroke-opacity:1;paint-order:markers fill stroke"
     d="M 15.53865,92.172022 7.0764299,106.82896 32.28936,106.89416 32.17732,92.265152 Z"
     id="path102-7"
     sodipodi:nodetypes="ccccc" />
  <path
     style="fill:#144750;fill-opacity:1;stroke:#114442;stroke-width:0.463617;stroke-linecap:round;stroke-linejoin:round;stroke-miterlimit:14.7;stroke-opacity:1;paint-order:markers fill stroke"
     d="M 51.63791,88.221852 H 36.79482 v -11.61113 h 10.055 z"
     id="path101-3-7" />
  <path
     style="fill:#144750;fill-opacity:1;stroke:#114442;stroke-width:0.463617;stroke-linecap:round;stroke-linejoin:round;stroke-miterlimit:14.7;stroke-opacity:1;paint-order:markers fill stroke"
     d="m 53.31373,92.172022 8.46221,14.656938 -25.21293,0.0652 0.11212,-14.629008 z"
     id="path102-9-7"
     sodipodi:nodetypes="ccccc" />
</svg>
