<?xml version="1.0" encoding="UTF-8" standalone="no"?>
<!-- Created with Inkscape (http://www.inkscape.org/) -->

<svg
   width="65.68943mm"
   height="115.79731mm"
   viewBox="0 0 65.68943 115.79731"
   version="1.1"
   id="svg1"
   inkscape:version="1.3.2 (091e20e, 2023-11-25, custom)"
   sodipodi:docname="magos (1).svg"
   xmlns:inkscape="http://www.inkscape.org/namespaces/inkscape"
   xmlns:sodipodi="http://sodipodi.sourceforge.net/DTD/sodipodi-0.dtd"
   xmlns="http://www.w3.org/2000/svg"
   xmlns:svg="http://www.w3.org/2000/svg">
  <sodipodi:namedview
     id="namedview1"
     pagecolor="#505050"
     bordercolor="#eeeeee"
     borderopacity="1"
     inkscape:showpageshadow="0"
     inkscape:pageopacity="0"
     inkscape:pagecheckerboard="0"
     inkscape:deskcolor="#505050"
     inkscape:document-units="mm"
     inkscape:zoom="0.56281482"
     inkscape:cx="1071.4004"
     inkscape:cy="649.41432"
     inkscape:window-width="1920"
     inkscape:window-height="1017"
     inkscape:window-x="-8"
     inkscape:window-y="-8"
     inkscape:window-maximized="1"
     inkscape:current-layer="layer1" />
  <defs
     id="defs1" />
  <g
     inkscape:label="Capa 1"
     inkscape:groupmode="layer"
     id="layer1"
     transform="translate(-314.60123,-173.96969)">
    <rect
       style="fill:#268e21;fill-opacity:1;stroke:#33b429;stroke-width:1.10737;stroke-linecap:butt;stroke-linejoin:round;stroke-miterlimit:3.6;stroke-dasharray:none;stroke-opacity:1"
       id="rect111"
       width="64.582054"
       height="111.5556"
       x="315.15494"
       y="177.65771" />
    <rect
       style="fill:#dddddd;fill-opacity:1;stroke:#fdfdfd;stroke-width:2.523;stroke-linecap:butt;stroke-linejoin:round;stroke-miterlimit:3.6;stroke-dasharray:none;stroke-opacity:1"
       id="rect112"
       width="59.194813"
       height="76.947731"
       x="317.84857"
       y="175.2312" />
    <rect
       style="fill:#ececec;fill-opacity:1;stroke:#bcbcbc;stroke-width:2.523;stroke-linecap:butt;stroke-linejoin:round;stroke-miterlimit:3.6;stroke-dasharray:none;stroke-opacity:1"
       id="rect113"
       width="59.194813"
       height="76.947731"
       x="317.84857"
       y="182.85002" />
    <rect
       style="fill:#dddddd;fill-opacity:1;stroke:#fdfdfd;stroke-width:2.523;stroke-linecap:butt;stroke-linejoin:round;stroke-miterlimit:3.6;stroke-dasharray:none;stroke-opacity:1"
       id="rect114"
       width="59.194813"
       height="76.947731"
       x="317.84857"
       y="190.81001" />
    <rect
       style="fill:#55d64d;fill-opacity:1;stroke:#33b429;stroke-width:0.499999;stroke-linecap:butt;stroke-linejoin:round;stroke-miterlimit:3.6;stroke-dasharray:none;stroke-opacity:1"
       id="rect115"
       width="64.582054"
       height="90.971191"
       x="315.15494"
       y="198.24214" />
    <path
       style="fill:#5b9f25;fill-opacity:1;stroke-width:0.449413;stroke-linecap:round;stroke-linejoin:round;stroke-miterlimit:3.6"
       d="m 347.26468,241.83534 h 13.71619 l 10.31187,38.48443 -13.72599,-0.0365 z"
       id="path131"
       sodipodi:nodetypes="ccccc" />
    <path
       style="fill:#92d85a;fill-opacity:1;stroke-width:0.449413;stroke-linecap:round;stroke-linejoin:round;stroke-miterlimit:3.6"
       d="m 320.66178,280.28317 h 43.76306 l -10.30206,-38.44783 h -24.03154 z"
       id="path132"
       sodipodi:nodetypes="ccccc" />
    <path
       id="path133"
       style="fill:#f9b771;fill-opacity:1;stroke-width:0.787682;stroke-linecap:round;stroke-linejoin:round;stroke-miterlimit:3.6"
       d="m 359.2187,241.83534 h -26.93065 a 13.465213,13.465213 0 0 0 13.46512,13.46513 13.465213,13.465213 0 0 0 13.46553,-13.46513 z" />
    <path
       id="path134"
       style="fill:#fac995;fill-opacity:1;stroke-width:0.298097;stroke-linecap:round;stroke-linejoin:round;stroke-miterlimit:3.6"
       d="m 350.84929,241.83534 h -10.19184 a 5.0958757,5.0958757 0 0 0 5.09584,5.09584 5.0958757,5.0958757 0 0 0 5.096,-5.09584 z" />
    <path
       style="fill:#92d85a;fill-opacity:1;stroke-width:0.876969;stroke-linecap:round;stroke-linejoin:round;stroke-miterlimit:3.6"
       d="M 374.84055,241.83534 H 316.2017 l 15.88867,-6.22378 15.62262,-27.05917 15.85293,27.45808 z"
       id="path135"
       sodipodi:nodetypes="cccccc" />
    <path
       style="fill:#5b9f25;fill-opacity:1;stroke-width:0.449413;stroke-linecap:round;stroke-linejoin:round;stroke-miterlimit:3.6"
       d="m 347.71299,208.55239 8.91814,33.28295 h 18.20942 l -11.27463,-5.82487 z"
       id="path136" />
    <path
       style="fill:#cb9f6f;fill-opacity:1;stroke-width:0.449413;stroke-linecap:round;stroke-linejoin:round;stroke-miterlimit:3.6"
       d="m 341.10858,243.93156 4.1177,2.97229 c 0,0 -2.82286,-0.15222 -4.1177,-2.97229 z"
       id="path137"
       sodipodi:nodetypes="ccc" />
    <path
       style="fill:#cb9f6f;fill-opacity:1;stroke-width:0.449413;stroke-linecap:round;stroke-linejoin:round;stroke-miterlimit:3.6"
       d="m 350.41684,243.93156 -4.1177,2.97229 c 0,0 2.82286,-0.15222 4.1177,-2.97229 z"
       id="path138"
       sodipodi:nodetypes="ccc" />
    <path
       id="path139"
       style="fill:#f65f1b;fill-opacity:1;stroke-width:0.345934;stroke-linecap:round;stroke-linejoin:round;stroke-miterlimit:3.6"
       d="m 350.84929,251.36469 h -10.19184 a 5.0958757,6.8626106 0 0 0 5.09584,6.86256 5.0958757,6.8626106 0 0 0 5.096,-6.86256 z" />
    <path
       style="fill:#9f3606;fill-opacity:1;stroke:#b72020;stroke-width:0.6731;stroke-linecap:butt;stroke-linejoin:round;stroke-miterlimit:3.6;stroke-opacity:1"
       d="m 345.75337,251.36469 v 6.86256"
       id="path140" />
    <path
       style="fill:#fac995;fill-opacity:1;stroke:#f9ac59;stroke-width:0.6731;stroke-linecap:butt;stroke-linejoin:round;stroke-miterlimit:3.6;stroke-opacity:1"
       d="m 351.86512,258.57192 3.82167,14.26266 h 17.38016 l 4.00522,-14.94768 -4.63896,-1.243 -2.81408,10.5023 2.81408,-10.5023 -6.2613,-1.53097 -0.0702,11.92925 v -24.50571 h -4.13321 v 24.50571 -11.87199 l -5.99221,1.7919 2.70094,10.08009 -2.70094,-10.08009 z"
       id="path141"
       sodipodi:nodetypes="ccccccccccccccccc" />
    <path
       style="fill:#f68c1d;fill-opacity:1;stroke:none;stroke-width:0.336549;stroke-linecap:butt;stroke-linejoin:round;stroke-miterlimit:3.6;stroke-dasharray:none;stroke-opacity:1"
       d="m 355.33219,241.83534 1.75939,7.26349 c 0,0 2.12712,-2.93613 2.12712,-7.26349 z"
       id="path142"
       sodipodi:nodetypes="cccc" />
  </g>
</svg>
