<?xml version="1.0" encoding="UTF-8" standalone="no"?>
<!-- Created with Inkscape (http://www.inkscape.org/) -->

<svg
   width="65.68943mm"
   height="115.79731mm"
   viewBox="0 0 65.68943 115.79731"
   version="1.1"
   id="svg1"
   inkscape:version="1.3.2 (091e20e, 2023-11-25, custom)"
   sodipodi:docname="magos (1).svg"
   xmlns:inkscape="http://www.inkscape.org/namespaces/inkscape"
   xmlns:sodipodi="http://sodipodi.sourceforge.net/DTD/sodipodi-0.dtd"
   xmlns="http://www.w3.org/2000/svg"
   xmlns:svg="http://www.w3.org/2000/svg">
  <sodipodi:namedview
     id="namedview1"
     pagecolor="#505050"
     bordercolor="#eeeeee"
     borderopacity="1"
     inkscape:showpageshadow="0"
     inkscape:pageopacity="0"
     inkscape:pagecheckerboard="0"
     inkscape:deskcolor="#505050"
     inkscape:document-units="mm"
     inkscape:zoom="0.56281482"
     inkscape:cx="1071.4004"
     inkscape:cy="649.41432"
     inkscape:window-width="1920"
     inkscape:window-height="1017"
     inkscape:window-x="-8"
     inkscape:window-y="-8"
     inkscape:window-maximized="1"
     inkscape:current-layer="layer1" />
  <defs
     id="defs1" />
  <g
     inkscape:label="Capa 1"
     inkscape:groupmode="layer"
     id="layer1"
     transform="translate(-399.71137,-173.96969)">
    <rect
       style="fill:#d81313;fill-opacity:1;stroke:#ef3b3b;stroke-width:1.10737;stroke-linecap:butt;stroke-linejoin:round;stroke-miterlimit:3.6;stroke-dasharray:none;stroke-opacity:1"
       id="rect122"
       width="64.582054"
       height="111.5556"
       x="400.26508"
       y="177.65771" />
    <rect
       style="fill:#dddddd;fill-opacity:1;stroke:#fdfdfd;stroke-width:2.523;stroke-linecap:butt;stroke-linejoin:round;stroke-miterlimit:3.6;stroke-dasharray:none;stroke-opacity:1"
       id="rect123"
       width="59.194813"
       height="76.947731"
       x="402.95874"
       y="175.2312" />
    <rect
       style="fill:#ececec;fill-opacity:1;stroke:#bcbcbc;stroke-width:2.523;stroke-linecap:butt;stroke-linejoin:round;stroke-miterlimit:3.6;stroke-dasharray:none;stroke-opacity:1"
       id="rect124"
       width="59.194813"
       height="76.947731"
       x="402.95874"
       y="182.85002" />
    <rect
       style="fill:#dddddd;fill-opacity:1;stroke:#fdfdfd;stroke-width:2.523;stroke-linecap:butt;stroke-linejoin:round;stroke-miterlimit:3.6;stroke-dasharray:none;stroke-opacity:1"
       id="rect125"
       width="59.194813"
       height="76.947731"
       x="402.95874"
       y="190.81001" />
    <rect
       style="fill:#f26161;fill-opacity:1;stroke:#ef3b3b;stroke-width:0.499999;stroke-linecap:butt;stroke-linejoin:round;stroke-miterlimit:3.6;stroke-dasharray:none;stroke-opacity:1"
       id="rect126"
       width="64.582054"
       height="90.971191"
       x="400.26508"
       y="198.24214" />
    <path
       style="fill:#ba1a17;fill-opacity:1;stroke:none;stroke-width:0.354285;stroke-linecap:butt;stroke-linejoin:round;stroke-miterlimit:3.6;stroke-dasharray:none;stroke-opacity:1"
       d="m 454.76261,272.17668 0.91844,-2.3071 3.98844,-0.48344 2.47767,-2.47768 2.01024,3.48184 0.99968,3.73087 -1.27419,4.75536 -3.12565,2.83752 -7.44193,-0.99435 -2.30759,-5.00847 z"
       id="path143" />
    <path
       style="fill:#cab819;fill-opacity:1;stroke:none;stroke-width:0.214968;stroke-linecap:butt;stroke-linejoin:round;stroke-miterlimit:3.6;stroke-dasharray:none;stroke-opacity:1"
       d="m 454.61542,275.12437 0.55728,-1.39986 2.42005,-0.29333 1.50336,-1.50337 1.21974,2.11265 0.60658,2.26376 -0.77313,2.88539 -1.89654,1.72171 -4.5155,-0.60334 -1.40016,-3.03896 z"
       id="path144" />
    <path
       style="fill:#ba1a17;fill-opacity:1;stroke:none;stroke-width:0.354285;stroke-linecap:butt;stroke-linejoin:round;stroke-miterlimit:3.6;stroke-dasharray:none;stroke-opacity:1"
       d="m 404.9978,274.89193 -2.83123,-1.6346 v -3.34516 l 3.74857,-3.74856 3.54916,3.54915 v 3.24757 z"
       id="path145" />
    <path
       style="fill:#cab819;fill-opacity:1;stroke:none;stroke-width:0.23529;stroke-linecap:butt;stroke-linejoin:round;stroke-miterlimit:3.6;stroke-dasharray:none;stroke-opacity:1"
       d="m 404.9978,274.89193 -1.88029,-1.08558 v -2.2216 l 2.48952,-2.48952 2.35709,2.35709 v 2.15679 z"
       id="path146" />
    <path
       style="fill:#ba3817;fill-opacity:1;stroke-width:0.473097;stroke-linecap:round;stroke-linejoin:round;stroke-miterlimit:3.6"
       d="m 431.76771,240.2457 h 14.43902 l 9.09366,33.93802 -1.36994,1.8813 -1.0355,0.97319 0.30641,1.7194 0.91548,1.21058 -0.80153,0.75151 -10.70262,6e-5 z"
       id="path147"
       sodipodi:nodetypes="cccccccccc" />
    <path
       style="fill:#e5522a;fill-opacity:1;stroke-width:0.473097;stroke-linecap:round;stroke-linejoin:round;stroke-miterlimit:3.6"
       d="m 406.74412,278.40318 1.17984,0.92583 -0.22506,1.41083 42.13329,-0.0201 -10.84497,-40.474 h -25.29798 l -9.29517,37.05279 1.19517,-0.42462 0.77887,0.50279 z"
       id="path148"
       sodipodi:nodetypes="cccccccccc" />
    <path
       style="fill:#000000;fill-opacity:1;stroke:#000000;stroke-width:0.354285;stroke-linecap:butt;stroke-linejoin:round;stroke-miterlimit:3.6;stroke-dasharray:none;stroke-opacity:1"
       d="m 424.81228,240.2457 h -13.15445 l 7.74858,0.58083 -7.66312,0.31336 4.04521,0.54126 -4.52949,2.3357 7.17882,-0.65494 -7.09336,2.84874 8.06194,-0.9116 -7.15034,5.81144 6.83697,-2.47841 -5.67335,4.27656 8.42004,-4.91505 -7.57401,5.55964 2.29637,-1.16833 -1.81292,1.81293 7.33228,-3.70643 -4.99562,5.64022 c 0,0 5.92224,-3.66615 5.80137,-3.46471 -0.12086,0.20144 -0.40287,5.03591 -0.40287,5.03591 l 2.80285,-4.7539 v 7.05028 l 0.86329,-2.77983 0.64706,2.82011 2.57592,-6.68768 0.24844,6.6474 0.55486,-2.25609 0.28446,1.5712 0.29007,-2.61867 0.35453,1.69207 0.6619,-2.73954 v 2.13522 l 1.15092,-4.55246 -0.36248,6.56683 1.41005,-3.26327 1.93379,2.77982 1.00719,-3.74671 1.61149,2.5381 -0.24173,-2.01437 2.09494,1.8935 -1.61149,-5.15677 4.50031,3.3665 -1.92192,-2.88305 5.64022,1.8935 -1.77264,-1.49063 4.82258,0.79602 -6.07149,-4.09958 7.25171,1.57121 -5.68051,-4.59275 6.08339,0.44316 -7.9366,-2.61868 6.36539,-0.12086 -8.66177,-2.64051 8.05746,1.35132 -1.65177,-0.87582 h 1.77263 l -0.84603,-0.81625 2.17551,0.34075 -3.1424,-2.20669 z"
       id="path149" />
    <path
       style="fill:#ba1a17;fill-opacity:1;stroke:none;stroke-width:0.354285;stroke-linecap:butt;stroke-linejoin:round;stroke-miterlimit:3.6;stroke-dasharray:none;stroke-opacity:1"
       d="m 444.69365,227.95194 0.5779,-1.32293 1.99774,-1.1534 1.7118,-2.96493 2.28823,3.96334 0.7877,1.36433 v 2.27691 l -1.88125,4.64324 -2.45288,1.62399 -4.58647,-4.61495 z"
       id="path150"
       sodipodi:nodetypes="ccccccccccc" />
    <path
       id="path151"
       style="fill:#fac995;fill-opacity:1;stroke-width:0.313807;stroke-linecap:round;stroke-linejoin:round;stroke-miterlimit:3.6"
       d="m 435.54122,240.2457 h -10.72894 a 5.3644243,5.3644243 0 0 0 5.36439,5.3644 5.3644243,5.3644243 0 0 0 5.36455,-5.3644 z" />
    <path
       style="fill:#ba1a17;fill-opacity:1;stroke:none;stroke-width:0.354285;stroke-linecap:butt;stroke-linejoin:round;stroke-miterlimit:3.6;stroke-dasharray:none;stroke-opacity:1"
       d="m 403.76286,240.2457 -2.59359,-0.69495 -1.08092,-1.87221 1.11175,-1.9256 2.40005,-1.38567 1.95982,1.95981 0.82769,2.50533 z"
       id="path152" />
    <path
       style="fill:#cab819;fill-opacity:1;stroke:none;stroke-width:0.204389;stroke-linecap:butt;stroke-linejoin:round;stroke-miterlimit:3.6;stroke-dasharray:none;stroke-opacity:1"
       d="m 403.32538,240.14983 -1.49625,-0.40092 -0.62358,-1.08009 0.64137,-1.11088 1.3846,-0.7994 1.13063,1.13062 0.4775,1.44534 z"
       id="path153" />
    <path
       style="fill:#cab819;fill-opacity:1;stroke:none;stroke-width:0.265926;stroke-linecap:butt;stroke-linejoin:round;stroke-miterlimit:3.6;stroke-dasharray:none;stroke-opacity:1"
       d="m 445.71107,231.13788 -0.43222,-1.61307 1.4995,-0.86575 1.28487,-2.22546 1.71754,2.97487 0.59125,1.02407 v 1.70904 l -1.41207,3.48519 -1.84112,1.21897 -3.44259,-3.46397 z"
       id="path154" />
    <path
       style="fill:#e5522a;fill-opacity:1;stroke-width:0.923185;stroke-linecap:round;stroke-linejoin:round;stroke-miterlimit:3.6"
       d="m 460.7968,240.2457 h -57.03394 l -0.87495,-0.19174 0.87495,-0.53343 -0.62131,-0.41888 0.41199,-0.28664 12.24018,-5.12109 16.44592,-28.48517 13.98912,30.03316 z"
       id="path155"
       sodipodi:nodetypes="cccccccccc" />
    <path
       style="fill:#ba3817;fill-opacity:1;stroke-width:0.473097;stroke-linecap:round;stroke-linejoin:round;stroke-miterlimit:3.6"
       d="m 432.23964,205.20876 9.38812,35.03694 h 19.16904 l -11.69686,-6.04301 -0.71581,0.89822 -1.31738,-0.517 -1.05552,-1.06087 0.188,-1.0593 -0.98285,-1.28438 1.33757,-1.17749 z"
       id="path156"
       sodipodi:nodetypes="ccccccccccc" />
    <path
       style="fill:#cb9f6f;fill-opacity:1;stroke-width:0.473097;stroke-linecap:round;stroke-linejoin:round;stroke-miterlimit:3.6"
       d="m 425.28718,242.45239 4.33471,3.12893 c 0,0 -2.97163,-0.16024 -4.33471,-3.12893 z"
       id="path157"
       sodipodi:nodetypes="ccc" />
    <path
       style="fill:#cb9f6f;fill-opacity:1;stroke-width:0.473097;stroke-linecap:round;stroke-linejoin:round;stroke-miterlimit:3.6"
       d="m 435.08598,242.45239 -4.3347,3.12893 c 0,0 2.97162,-0.16024 4.3347,-3.12893 z"
       id="path158"
       sodipodi:nodetypes="ccc" />
  </g>
</svg>
