<?xml version="1.0" encoding="UTF-8" standalone="no"?>
<!-- Created with Inkscape (http://www.inkscape.org/) -->

<svg
   width="65.68943mm"
   height="115.79731mm"
   viewBox="0 0 65.68943 115.79731"
   version="1.1"
   id="svg1"
   inkscape:version="1.3.2 (091e20e, 2023-11-25, custom)"
   sodipodi:docname="magos (1).svg"
   xmlns:inkscape="http://www.inkscape.org/namespaces/inkscape"
   xmlns:sodipodi="http://sodipodi.sourceforge.net/DTD/sodipodi-0.dtd"
   xmlns="http://www.w3.org/2000/svg"
   xmlns:svg="http://www.w3.org/2000/svg">
  <sodipodi:namedview
     id="namedview1"
     pagecolor="#505050"
     bordercolor="#eeeeee"
     borderopacity="1"
     inkscape:showpageshadow="0"
     inkscape:pageopacity="0"
     inkscape:pagecheckerboard="0"
     inkscape:deskcolor="#505050"
     inkscape:document-units="mm"
     inkscape:zoom="0.56281482"
     inkscape:cx="1071.4004"
     inkscape:cy="649.41432"
     inkscape:window-width="1920"
     inkscape:window-height="1017"
     inkscape:window-x="-8"
     inkscape:window-y="-8"
     inkscape:window-maximized="1"
     inkscape:current-layer="layer1" />
  <defs
     id="defs1" />
  <g
     inkscape:label="Capa 1"
     inkscape:groupmode="layer"
     id="layer1"
     transform="translate(-484.82154,-173.96969)">
    <rect
       style="fill:#214990;fill-opacity:1;stroke:#102344;stroke-width:1.10737;stroke-linecap:butt;stroke-linejoin:round;stroke-miterlimit:3.6;stroke-dasharray:none;stroke-opacity:1"
       id="rect127"
       width="64.582054"
       height="111.5556"
       x="485.37521"
       y="177.65771" />
    <rect
       style="fill:#dddddd;fill-opacity:1;stroke:#fdfdfd;stroke-width:2.523;stroke-linecap:butt;stroke-linejoin:round;stroke-miterlimit:3.6;stroke-dasharray:none;stroke-opacity:1"
       id="rect128"
       width="59.194813"
       height="76.947731"
       x="488.06888"
       y="175.2312" />
    <rect
       style="fill:#ececec;fill-opacity:1;stroke:#bcbcbc;stroke-width:2.523;stroke-linecap:butt;stroke-linejoin:round;stroke-miterlimit:3.6;stroke-dasharray:none;stroke-opacity:1"
       id="rect129"
       width="59.194813"
       height="76.947731"
       x="488.06888"
       y="182.85002" />
    <rect
       style="fill:#dddddd;fill-opacity:1;stroke:#fdfdfd;stroke-width:2.523;stroke-linecap:butt;stroke-linejoin:round;stroke-miterlimit:3.6;stroke-dasharray:none;stroke-opacity:1"
       id="rect130"
       width="59.194813"
       height="76.947731"
       x="488.06888"
       y="190.81001" />
    <rect
       style="fill:#102344;fill-opacity:1;stroke:#102344;stroke-width:0.499999;stroke-linecap:butt;stroke-linejoin:round;stroke-miterlimit:3.6;stroke-dasharray:none;stroke-opacity:1"
       id="rect131"
       width="64.582054"
       height="90.971191"
       x="485.37521"
       y="198.24214" />
    <path
       style="fill:#060d1a;fill-opacity:1;stroke-width:0.926296;stroke-linecap:round;stroke-linejoin:round;stroke-miterlimit:3.6"
       d="M 547.40298,236.61516 H 487.1098 l 16.33692,-6.7531 2.20664,-27.48126 6.55806,12.71175 8.82646,-11.85051 14.77239,27.05285 z"
       id="path159"
       sodipodi:nodetypes="cccccccc" />
    <path
       style="fill:#060d1a;fill-opacity:1;stroke-width:0.497124;stroke-linecap:round;stroke-linejoin:round;stroke-miterlimit:3.6"
       d="m 521.76191,214.45637 7.15534,22.01447 h 19.60794 l -12.14055,-6.61893 -3.13117,-27.32679 -7.09416,14.55521 z"
       id="path160"
       sodipodi:nodetypes="ccccccc" />
    <path
       style="fill:#000000;fill-opacity:1;stroke:none;stroke-width:0.382429;stroke-linecap:butt;stroke-linejoin:round;stroke-miterlimit:3.6;stroke-dasharray:none;stroke-opacity:1"
       d="m 510.25472,280.20158 20.38697,-0.0415 -11.70647,-43.68921 z"
       id="path161" />
    <g
       id="g162"
       transform="matrix(0.76485926,0,0,0.76485926,387.66573,118.89278)">
      <path
         id="path162"
         style="fill:#000000;fill-opacity:1;stroke:#fdfdfd;stroke-width:0.499999;stroke-linecap:butt;stroke-linejoin:round;stroke-miterlimit:3.6;stroke-dasharray:none;stroke-opacity:1"
         d="m 165.60591,204.82419 c -2.01238,-0.0249 -3.44992,1.56683 -3.44992,1.56683 0,0 3.18402,3.52513 6.70915,0 -1.15668,-1.15668 -2.27643,-1.55469 -3.25923,-1.56683 z" />
      <circle
         style="fill:#ffffff;fill-opacity:1;stroke:#fdfdfd;stroke-width:0.499999;stroke-linecap:butt;stroke-linejoin:round;stroke-miterlimit:3.6;stroke-dasharray:none;stroke-opacity:1"
         id="circle162"
         cx="165.51057"
         cy="206.38754"
         r="1.3244878" />
    </g>
    <g
       id="g163"
       transform="matrix(0.72703703,-0.23754333,0.23754333,0.72703703,351.4803,163.76497)">
      <path
         id="path163"
         style="fill:#000000;fill-opacity:1;stroke:#fdfdfd;stroke-width:0.499999;stroke-linecap:butt;stroke-linejoin:round;stroke-miterlimit:3.6;stroke-dasharray:none;stroke-opacity:1"
         d="m 165.60591,204.82419 c -2.01238,-0.0249 -3.44992,1.56683 -3.44992,1.56683 0,0 3.18402,3.52513 6.70915,0 -1.15668,-1.15668 -2.27643,-1.55469 -3.25923,-1.56683 z" />
      <circle
         style="fill:#ffffff;fill-opacity:1;stroke:#fdfdfd;stroke-width:0.499999;stroke-linecap:butt;stroke-linejoin:round;stroke-miterlimit:3.6;stroke-dasharray:none;stroke-opacity:1"
         id="circle163"
         cx="165.51057"
         cy="206.38754"
         r="1.3244878" />
    </g>
    <g
       id="g164"
       transform="matrix(0.71941163,0.25972407,-0.25972407,0.71941163,461.15149,85.724544)">
      <path
         id="path164"
         style="fill:#000000;fill-opacity:1;stroke:#fdfdfd;stroke-width:0.499999;stroke-linecap:butt;stroke-linejoin:round;stroke-miterlimit:3.6;stroke-dasharray:none;stroke-opacity:1"
         d="m 165.60591,204.82419 c -2.01238,-0.0249 -3.44992,1.56683 -3.44992,1.56683 0,0 3.18402,3.52513 6.70915,0 -1.15668,-1.15668 -2.27643,-1.55469 -3.25923,-1.56683 z" />
      <circle
         style="fill:#ffffff;fill-opacity:1;stroke:#fdfdfd;stroke-width:0.499999;stroke-linecap:butt;stroke-linejoin:round;stroke-miterlimit:3.6;stroke-dasharray:none;stroke-opacity:1"
         id="circle164"
         cx="165.51057"
         cy="206.38754"
         r="1.3244878" />
    </g>
    <g
       id="g165"
       transform="matrix(0.71941163,0.25972407,-0.25972407,0.71941163,462.35646,79.851219)">
      <path
         id="path165"
         style="fill:#000000;fill-opacity:1;stroke:#fdfdfd;stroke-width:0.499999;stroke-linecap:butt;stroke-linejoin:round;stroke-miterlimit:3.6;stroke-dasharray:none;stroke-opacity:1"
         d="m 165.60591,204.82419 c -2.01238,-0.0249 -3.44992,1.56683 -3.44992,1.56683 0,0 3.18402,3.52513 6.70915,0 -1.15668,-1.15668 -2.27643,-1.55469 -3.25923,-1.56683 z" />
      <circle
         style="fill:#ffffff;fill-opacity:1;stroke:#fdfdfd;stroke-width:0.499999;stroke-linecap:butt;stroke-linejoin:round;stroke-miterlimit:3.6;stroke-dasharray:none;stroke-opacity:1"
         id="circle165"
         cx="165.51057"
         cy="206.38754"
         r="1.3244878" />
    </g>
    <g
       id="g166"
       transform="matrix(0.71941163,0.25972407,-0.25972407,0.71941163,449.6258,80.619977)">
      <path
         id="path166"
         style="fill:#000000;fill-opacity:1;stroke:#fdfdfd;stroke-width:0.499999;stroke-linecap:butt;stroke-linejoin:round;stroke-miterlimit:3.6;stroke-dasharray:none;stroke-opacity:1"
         d="m 165.60591,204.82419 c -2.01238,-0.0249 -3.44992,1.56683 -3.44992,1.56683 0,0 3.18402,3.52513 6.70915,0 -1.15668,-1.15668 -2.27643,-1.55469 -3.25923,-1.56683 z" />
      <circle
         style="fill:#ffffff;fill-opacity:1;stroke:#fdfdfd;stroke-width:0.499999;stroke-linecap:butt;stroke-linejoin:round;stroke-miterlimit:3.6;stroke-dasharray:none;stroke-opacity:1"
         id="circle166"
         cx="165.51057"
         cy="206.38754"
         r="1.3244878" />
    </g>
    <g
       id="g167"
       transform="matrix(0.71941163,0.25972407,-0.25972407,0.71941163,447.02128,74.377652)">
      <path
         id="path167"
         style="fill:#000000;fill-opacity:1;stroke:#fdfdfd;stroke-width:0.499999;stroke-linecap:butt;stroke-linejoin:round;stroke-miterlimit:3.6;stroke-dasharray:none;stroke-opacity:1"
         d="m 165.60591,204.82419 c -2.01238,-0.0249 -3.44992,1.56683 -3.44992,1.56683 0,0 3.18402,3.52513 6.70915,0 -1.15668,-1.15668 -2.27643,-1.55469 -3.25923,-1.56683 z" />
      <circle
         style="fill:#ffffff;fill-opacity:1;stroke:#fdfdfd;stroke-width:0.499999;stroke-linecap:butt;stroke-linejoin:round;stroke-miterlimit:3.6;stroke-dasharray:none;stroke-opacity:1"
         id="circle167"
         cx="165.51057"
         cy="206.38754"
         r="1.3244878" />
    </g>
    <g
       id="g168"
       transform="matrix(0.2999139,-0.70360595,0.70360595,0.2999139,325.15832,323.11067)">
      <path
         id="path168"
         style="fill:#000000;fill-opacity:1;stroke:#fdfdfd;stroke-width:0.499999;stroke-linecap:butt;stroke-linejoin:round;stroke-miterlimit:3.6;stroke-dasharray:none;stroke-opacity:1"
         d="m 165.60591,204.82419 c -2.01238,-0.0249 -3.44992,1.56683 -3.44992,1.56683 0,0 3.18402,3.52513 6.70915,0 -1.15668,-1.15668 -2.27643,-1.55469 -3.25923,-1.56683 z" />
      <circle
         style="fill:#ffffff;fill-opacity:1;stroke:#fdfdfd;stroke-width:0.499999;stroke-linecap:butt;stroke-linejoin:round;stroke-miterlimit:3.6;stroke-dasharray:none;stroke-opacity:1"
         id="circle168"
         cx="165.51057"
         cy="206.38754"
         r="1.3244878" />
    </g>
    <g
       id="g169"
       transform="matrix(0.0357388,-0.76402383,0.76402383,0.0357388,362.43982,385.08429)"
       inkscape:transform-center-x="0.027914796"
       inkscape:transform-center-y="0.030749153">
      <path
         id="path169"
         style="fill:#000000;fill-opacity:1;stroke:#fdfdfd;stroke-width:0.499999;stroke-linecap:butt;stroke-linejoin:round;stroke-miterlimit:3.6;stroke-dasharray:none;stroke-opacity:1"
         d="m 165.60591,204.82419 c -2.01238,-0.0249 -3.44992,1.56683 -3.44992,1.56683 0,0 3.18402,3.52513 6.70915,0 -1.15668,-1.15668 -2.27643,-1.55469 -3.25923,-1.56683 z" />
      <circle
         style="fill:#ffffff;fill-opacity:1;stroke:#fdfdfd;stroke-width:0.499999;stroke-linecap:butt;stroke-linejoin:round;stroke-miterlimit:3.6;stroke-dasharray:none;stroke-opacity:1"
         id="circle169"
         cx="165.51057"
         cy="206.38754"
         r="1.3244878" />
    </g>
    <g
       id="g170"
       transform="matrix(-0.32732101,-0.69128187,0.69128187,-0.32732101,429.72917,444.57397)"
       inkscape:transform-center-x="0.020419381"
       inkscape:transform-center-y="0.041003213">
      <path
         id="path170"
         style="fill:#000000;fill-opacity:1;stroke:#fdfdfd;stroke-width:0.499999;stroke-linecap:butt;stroke-linejoin:round;stroke-miterlimit:3.6;stroke-dasharray:none;stroke-opacity:1"
         d="m 165.60591,204.82419 c -2.01238,-0.0249 -3.44992,1.56683 -3.44992,1.56683 0,0 3.18402,3.52513 6.70915,0 -1.15668,-1.15668 -2.27643,-1.55469 -3.25923,-1.56683 z" />
      <circle
         style="fill:#ffffff;fill-opacity:1;stroke:#fdfdfd;stroke-width:0.499999;stroke-linecap:butt;stroke-linejoin:round;stroke-miterlimit:3.6;stroke-dasharray:none;stroke-opacity:1"
         id="circle170"
         cx="165.51057"
         cy="206.38754"
         r="1.3244878" />
    </g>
    <g
       id="g171"
       transform="matrix(-0.75341893,-0.13179376,0.13179376,-0.75341893,611.38593,436.04216)"
       inkscape:transform-center-x="-0.026795089"
       inkscape:transform-center-y="0.027312764">
      <path
         id="path171"
         style="fill:#000000;fill-opacity:1;stroke:#fdfdfd;stroke-width:0.499999;stroke-linecap:butt;stroke-linejoin:round;stroke-miterlimit:3.6;stroke-dasharray:none;stroke-opacity:1"
         d="m 165.60591,204.82419 c -2.01238,-0.0249 -3.44992,1.56683 -3.44992,1.56683 0,0 3.18402,3.52513 6.70915,0 -1.15668,-1.15668 -2.27643,-1.55469 -3.25923,-1.56683 z" />
      <circle
         style="fill:#ffffff;fill-opacity:1;stroke:#fdfdfd;stroke-width:0.499999;stroke-linecap:butt;stroke-linejoin:round;stroke-miterlimit:3.6;stroke-dasharray:none;stroke-opacity:1"
         id="circle171"
         cx="165.51057"
         cy="206.38754"
         r="1.3244878" />
    </g>
    <g
       id="g172"
       transform="matrix(-0.62827347,0.4362134,-0.4362134,-0.62827347,718.66902,317.91527)"
       inkscape:transform-center-x="-0.04234971"
       inkscape:transform-center-y="0.0085191076">
      <path
         id="path172"
         style="fill:#000000;fill-opacity:1;stroke:#fdfdfd;stroke-width:0.499999;stroke-linecap:butt;stroke-linejoin:round;stroke-miterlimit:3.6;stroke-dasharray:none;stroke-opacity:1"
         d="m 165.60591,204.82419 c -2.01238,-0.0249 -3.44992,1.56683 -3.44992,1.56683 0,0 3.18402,3.52513 6.70915,0 -1.15668,-1.15668 -2.27643,-1.55469 -3.25923,-1.56683 z" />
      <circle
         style="fill:#ffffff;fill-opacity:1;stroke:#fdfdfd;stroke-width:0.499999;stroke-linecap:butt;stroke-linejoin:round;stroke-miterlimit:3.6;stroke-dasharray:none;stroke-opacity:1"
         id="circle172"
         cx="165.51057"
         cy="206.38754"
         r="1.3244878" />
    </g>
    <g
       id="g173"
       transform="matrix(-0.76462787,-0.01881196,0.01881196,-0.76462787,646.64423,416.30198)"
       inkscape:transform-center-x="-0.031407992"
       inkscape:transform-center-y="0.028027628">
      <path
         id="path173"
         style="fill:#000000;fill-opacity:1;stroke:#fdfdfd;stroke-width:0.499999;stroke-linecap:butt;stroke-linejoin:round;stroke-miterlimit:3.6;stroke-dasharray:none;stroke-opacity:1"
         d="m 165.60591,204.82419 c -2.01238,-0.0249 -3.44992,1.56683 -3.44992,1.56683 0,0 3.18402,3.52513 6.70915,0 -1.15668,-1.15668 -2.27643,-1.55469 -3.25923,-1.56683 z" />
      <circle
         style="fill:#ffffff;fill-opacity:1;stroke:#fdfdfd;stroke-width:0.499999;stroke-linecap:butt;stroke-linejoin:round;stroke-miterlimit:3.6;stroke-dasharray:none;stroke-opacity:1"
         id="circle173"
         cx="165.51057"
         cy="206.38754"
         r="1.3244878" />
    </g>
    <g
       id="g174"
       transform="matrix(-0.76462787,-0.01881196,0.01881196,-0.76462787,642.68412,418.73876)"
       inkscape:transform-center-x="-0.031406695"
       inkscape:transform-center-y="0.02802843">
      <path
         id="path174"
         style="fill:#000000;fill-opacity:1;stroke:#fdfdfd;stroke-width:0.499999;stroke-linecap:butt;stroke-linejoin:round;stroke-miterlimit:3.6;stroke-dasharray:none;stroke-opacity:1"
         d="m 165.60591,204.82419 c -2.01238,-0.0249 -3.44992,1.56683 -3.44992,1.56683 0,0 3.18402,3.52513 6.70915,0 -1.15668,-1.15668 -2.27643,-1.55469 -3.25923,-1.56683 z" />
      <circle
         style="fill:#ffffff;fill-opacity:1;stroke:#fdfdfd;stroke-width:0.499999;stroke-linecap:butt;stroke-linejoin:round;stroke-miterlimit:3.6;stroke-dasharray:none;stroke-opacity:1"
         id="circle174"
         cx="165.51057"
         cy="206.38754"
         r="1.3244878" />
    </g>
    <g
       id="g175"
       transform="matrix(-0.76462787,-0.01881196,0.01881196,-0.76462787,638.72357,413.48045)"
       inkscape:transform-center-x="-0.031406841"
       inkscape:transform-center-y="0.028025341">
      <path
         id="path175"
         style="fill:#000000;fill-opacity:1;stroke:#fdfdfd;stroke-width:0.499999;stroke-linecap:butt;stroke-linejoin:round;stroke-miterlimit:3.6;stroke-dasharray:none;stroke-opacity:1"
         d="m 165.60591,204.82419 c -2.01238,-0.0249 -3.44992,1.56683 -3.44992,1.56683 0,0 3.18402,3.52513 6.70915,0 -1.15668,-1.15668 -2.27643,-1.55469 -3.25923,-1.56683 z" />
      <circle
         style="fill:#ffffff;fill-opacity:1;stroke:#fdfdfd;stroke-width:0.499999;stroke-linecap:butt;stroke-linejoin:round;stroke-miterlimit:3.6;stroke-dasharray:none;stroke-opacity:1"
         id="circle175"
         cx="165.51057"
         cy="206.38754"
         r="1.3244878" />
    </g>
    <g
       id="g176"
       transform="matrix(-0.75468276,0.12435278,-0.12435278,-0.75468276,671.55036,379.65308)"
       inkscape:transform-center-x="-0.036240355"
       inkscape:transform-center-y="0.028228372">
      <path
         id="path176"
         style="fill:#000000;fill-opacity:1;stroke:#fdfdfd;stroke-width:0.499999;stroke-linecap:butt;stroke-linejoin:round;stroke-miterlimit:3.6;stroke-dasharray:none;stroke-opacity:1"
         d="m 165.60591,204.82419 c -2.01238,-0.0249 -3.44992,1.56683 -3.44992,1.56683 0,0 3.18402,3.52513 6.70915,0 -1.15668,-1.15668 -2.27643,-1.55469 -3.25923,-1.56683 z" />
      <circle
         style="fill:#ffffff;fill-opacity:1;stroke:#fdfdfd;stroke-width:0.499999;stroke-linecap:butt;stroke-linejoin:round;stroke-miterlimit:3.6;stroke-dasharray:none;stroke-opacity:1"
         id="circle176"
         cx="165.51057"
         cy="206.38754"
         r="1.3244878" />
    </g>
    <g
       id="g177"
       transform="matrix(-0.72567532,-0.24167129,0.24167129,-0.72567532,591.19061,439.49104)"
       inkscape:transform-center-x="-0.021603309"
       inkscape:transform-center-y="0.027876021">
      <path
         id="path177"
         style="fill:#000000;fill-opacity:1;stroke:#fdfdfd;stroke-width:0.499999;stroke-linecap:butt;stroke-linejoin:round;stroke-miterlimit:3.6;stroke-dasharray:none;stroke-opacity:1"
         d="m 165.60591,204.82419 c -2.01238,-0.0249 -3.44992,1.56683 -3.44992,1.56683 0,0 3.18402,3.52513 6.70915,0 -1.15668,-1.15668 -2.27643,-1.55469 -3.25923,-1.56683 z" />
      <circle
         style="fill:#ffffff;fill-opacity:1;stroke:#fdfdfd;stroke-width:0.499999;stroke-linecap:butt;stroke-linejoin:round;stroke-miterlimit:3.6;stroke-dasharray:none;stroke-opacity:1"
         id="circle177"
         cx="165.51057"
         cy="206.38754"
         r="1.3244878" />
    </g>
    <path
       style="fill:#060d1a;fill-opacity:1;stroke-width:0.510679;stroke-linecap:round;stroke-linejoin:round;stroke-miterlimit:3.6"
       d="m 518.93522,236.47084 h 15.586 l 11.71762,43.73073 -15.59715,-0.0415 z"
       id="path178"
       sodipodi:nodetypes="ccccc" />
    <path
       style="fill:#060d1a;fill-opacity:1;stroke-width:0.510679;stroke-linecap:round;stroke-linejoin:round;stroke-miterlimit:3.6"
       d="m 488.70573,280.15998 21.54899,0.0416 8.6805,-43.73073 h -19.51458 z"
       id="path179"
       sodipodi:nodetypes="ccccc" />
  </g>
</svg>
