<?xml version="1.0" encoding="UTF-8" standalone="no"?>
<!-- Created with Inkscape (http://www.inkscape.org/) -->

<svg
   width="65.712753mm"
   height="115.79731mm"
   viewBox="0 0 65.712753 115.79731"
   version="1.1"
   id="svg1"
   inkscape:version="1.3.2 (091e20e, 2023-11-25, custom)"
   sodipodi:docname="magos.svg"
   xmlns:inkscape="http://www.inkscape.org/namespaces/inkscape"
   xmlns:sodipodi="http://sodipodi.sourceforge.net/DTD/sodipodi-0.dtd"
   xmlns="http://www.w3.org/2000/svg"
   xmlns:svg="http://www.w3.org/2000/svg">
  <sodipodi:namedview
     id="namedview1"
     pagecolor="#505050"
     bordercolor="#eeeeee"
     borderopacity="1"
     inkscape:showpageshadow="0"
     inkscape:pageopacity="0"
     inkscape:pagecheckerboard="0"
     inkscape:deskcolor="#505050"
     inkscape:document-units="mm"
     inkscape:zoom="11.313708"
     inkscape:cx="57.982756"
     inkscape:cy="673.38663"
     inkscape:window-width="1920"
     inkscape:window-height="1017"
     inkscape:window-x="-8"
     inkscape:window-y="-8"
     inkscape:window-maximized="1"
     inkscape:current-layer="layer1" />
  <defs
     id="defs1" />
  <g
     inkscape:label="Capa 1"
     inkscape:groupmode="layer"
     id="layer1"
     transform="translate(-399.71137,-173.96969)">
    <rect
       style="fill:#d81313;fill-opacity:1;stroke:#ef3b3b;stroke-width:1.10737;stroke-linecap:butt;stroke-linejoin:round;stroke-miterlimit:3.6;stroke-dasharray:none;stroke-opacity:1"
       id="rect122"
       width="64.582054"
       height="111.5556"
       x="400.26508"
       y="177.65771" />
    <rect
       style="fill:#dddddd;fill-opacity:1;stroke:#fdfdfd;stroke-width:2.523;stroke-linecap:butt;stroke-linejoin:round;stroke-miterlimit:3.6;stroke-dasharray:none;stroke-opacity:1"
       id="rect123"
       width="59.194813"
       height="76.947731"
       x="402.95874"
       y="175.2312" />
    <rect
       style="fill:#ececec;fill-opacity:1;stroke:#bcbcbc;stroke-width:2.523;stroke-linecap:butt;stroke-linejoin:round;stroke-miterlimit:3.6;stroke-dasharray:none;stroke-opacity:1"
       id="rect124"
       width="59.194813"
       height="76.947731"
       x="402.95874"
       y="182.85002" />
    <rect
       style="fill:#dddddd;fill-opacity:1;stroke:#fdfdfd;stroke-width:2.523;stroke-linecap:butt;stroke-linejoin:round;stroke-miterlimit:3.6;stroke-dasharray:none;stroke-opacity:1"
       id="rect125"
       width="59.194813"
       height="76.947731"
       x="402.95874"
       y="190.81001" />
    <rect
       style="fill:#f26161;fill-opacity:1;stroke:#ef3b3b;stroke-width:0.499999;stroke-linecap:butt;stroke-linejoin:round;stroke-miterlimit:3.6;stroke-dasharray:none;stroke-opacity:1"
       id="rect126"
       width="64.582054"
       height="90.971191"
       x="400.26508"
       y="198.24214" />
  </g>
  <path
     style="fill:#ba1a17;fill-opacity:1;stroke:none;stroke-width:0.345317;stroke-linecap:butt;stroke-linejoin:round;stroke-miterlimit:3.6;stroke-dasharray:none;stroke-opacity:1"
     d="m 55.581386,97.287439 0.89521,-2.24869 3.88747,-0.47121 2.41497,-2.41496 1.95936,3.3937 0.97437,3.63644 -1.24194,4.634991 -3.04653,2.7657 -7.25357,-0.96919 -2.24917,-4.88168 z"
     id="path44" />
  <path
     style="fill:#cab819;fill-opacity:1;stroke:none;stroke-width:0.209527;stroke-linecap:butt;stroke-linejoin:round;stroke-miterlimit:3.6;stroke-dasharray:none;stroke-opacity:1"
     d="m 55.437946,100.16052 0.54317,-1.364421 2.35879,-0.28591 1.4653,-1.46531 1.18887,2.05918 0.59122,2.206451 -0.75357,2.81236 -1.84852,1.67813 -4.4012,-0.58806 -1.36473,-2.96204 z"
     id="path45" />
  <path
     style="fill:#ba1a17;fill-opacity:1;stroke:none;stroke-width:0.345317;stroke-linecap:butt;stroke-linejoin:round;stroke-miterlimit:3.6;stroke-dasharray:none;stroke-opacity:1"
     d="m 7.0762161,99.933979 -2.75956,-1.59324 v -3.26048 l 3.65368,-3.65368 3.4593299,3.45931 v 3.16537 z"
     id="path48" />
  <path
     style="fill:#cab819;fill-opacity:1;stroke:none;stroke-width:0.229334;stroke-linecap:butt;stroke-linejoin:round;stroke-miterlimit:3.6;stroke-dasharray:none;stroke-opacity:1"
     d="m 7.0762161,99.933979 -1.8327,-1.05811 v -2.16537 l 2.42651,-2.4265 2.29742,2.29742 v 2.10219 z"
     id="path49" />
  <path
     style="fill:#ba3817;fill-opacity:1;stroke-width:0.461122;stroke-linecap:round;stroke-linejoin:round;stroke-miterlimit:3.6"
     d="m 33.168546,66.164699 h 14.07354 l 8.86347,33.07899 -1.33525,1.833681 -1.0093,0.94855 0.29866,1.67589 0.8923,1.17993 -0.78124,0.73248 -10.43172,6e-5 z"
     id="path17"
     sodipodi:nodetypes="cccccccccc" />
  <path
     style="fill:#e5522a;fill-opacity:1;stroke-width:0.461122;stroke-linecap:round;stroke-linejoin:round;stroke-miterlimit:3.6"
     d="m 8.7783261,103.35634 1.14999,0.9024 -0.21937,1.37512 41.0668299,-0.0196 -10.57047,-39.449521 h -24.65764 l -9.0598899,36.114921 1.16491,-0.41388 0.75917,0.49007 z"
     id="path18"
     sodipodi:nodetypes="cccccccccc" />
  <path
     style="fill:#ba1a17;fill-opacity:1;stroke:none;stroke-width:0.345317;stroke-linecap:butt;stroke-linejoin:round;stroke-miterlimit:3.6;stroke-dasharray:none;stroke-opacity:1"
     d="m 45.767296,54.182109 0.56327,-1.28945 1.94718,-1.1242 1.66847,-2.88987 2.23032,3.86301 0.76775,1.3298 v 2.21927 l -1.83364,4.52571 -2.39078,1.58289 -4.47038,-4.49814 z"
     id="path42"
     sodipodi:nodetypes="ccccccccccc" />
  <path
     style="fill:#ba1a17;fill-opacity:1;stroke:none;stroke-width:0.345317;stroke-linecap:butt;stroke-linejoin:round;stroke-miterlimit:3.6;stroke-dasharray:none;stroke-opacity:1"
     d="m 5.8725361,66.164699 -2.52794,-0.67736 -1.05356,-1.82483 1.0836,-1.87685 2.33932,-1.35061 1.9102,1.91021 0.80674,2.44192 z"
     id="path46" />
  <path
     style="fill:#cab819;fill-opacity:1;stroke:none;stroke-width:0.199215;stroke-linecap:butt;stroke-linejoin:round;stroke-miterlimit:3.6;stroke-dasharray:none;stroke-opacity:1"
     d="m 5.4461361,66.071249 -1.45838,-0.39077 -0.60781,-1.05275 0.62514,-1.08277 1.34956,-0.77916 1.10201,1.10201 0.46542,1.40875 z"
     id="path47" />
  <path
     style="fill:#cab819;fill-opacity:1;stroke:none;stroke-width:0.259194;stroke-linecap:butt;stroke-linejoin:round;stroke-miterlimit:3.6;stroke-dasharray:none;stroke-opacity:1"
     d="m 46.758976,57.287409 -0.4213,-1.57224 1.46155,-0.84383 1.25235,-2.16913 1.67407,2.89956 0.57628,0.99815 v 1.66578 l -1.37633,3.39698 -1.79451,1.18812 -3.35545,-3.3763 z"
     id="path43" />
  <ellipse
     style="fill:#fac995;fill-opacity:1;stroke:#7b1f1f;stroke-width:0.153275;stroke-linejoin:round;stroke-miterlimit:3.6;stroke-dasharray:none;stroke-opacity:1"
     id="path86"
     cx="32.442955"
     cy="64.351479"
     rx="12.151017"
     ry="7.975183" />
  <rect
     style="fill:#fac995;fill-opacity:1;stroke:none;stroke-width:0.128318;stroke-linejoin:round;stroke-miterlimit:3.6;stroke-dasharray:none;stroke-opacity:1"
     id="rect92"
     width="23.438572"
     height="8.4041452"
     x="20.746756"
     y="64.876503" />
  <path
     style="fill:#000000;fill-opacity:1;stroke:#000000;stroke-width:0.345317;stroke-linecap:butt;stroke-linejoin:round;stroke-miterlimit:3.6;stroke-dasharray:none;stroke-opacity:1"
     d="m 25.987406,71.306619 h -12.8215 l 7.55246,0.56613 -7.46916,0.30543 3.94282,0.52755 -4.41485,2.27659 6.99712,-0.63836 -6.91382,2.77663 7.85789,-0.88852 -6.96936,5.66433 6.66392,-2.41567 -5.52975,4.16831 8.20691,-4.79064 -7.38229,5.41892 2.23824,-1.13876 -1.76704,1.76704 7.1467,-3.61261 -4.86917,5.49746 c 0,0 5.77232,-3.57335 5.65452,-3.37702 -0.1178,0.19634 -0.39268,4.90845 -0.39268,4.90845 l 2.73191,-4.63358 v 6.87182 l 0.84144,-2.70946 0.63067,2.74874 2.51073,-6.51841 0.24215,6.47913 0.54081,-2.19897 0.27727,1.53143 0.28272,-2.55239 0.34555,1.64924 0.64516,-2.6702 v 2.08118 l 1.12179,-4.43724 -0.35331,6.40062 1.37436,-3.18067 1.88484,2.70946 0.98169,-3.65188 1.57071,2.47385 -0.23561,-1.96337 2.04191,1.84557 -1.57069,-5.02625 4.38639,3.28128 -1.87327,-2.81006 5.49744,1.84557 -1.72776,-1.4529 4.70051,0.77587 -5.9178,-3.99581 7.06815,1.53144 -5.53672,-4.4765 5.9294,0.43194 -7.73571,-2.55239 6.20427,-0.1178 -8.44252,-2.57368 7.85351,1.31711 -1.60997,-0.85364 h 1.72777 l -0.82462,-0.7956 2.12045,0.33213 -3.06287,-2.15084 z"
     id="path41" />
  <path
     id="path25"
     style="fill:#fac995;fill-opacity:1;stroke-width:0.305864;stroke-linecap:round;stroke-linejoin:round;stroke-miterlimit:3.6"
     d="m 36.829266,71.092749 h -10.45736 a 5.2286415,5.2286415 0 0 0 5.22861,5.22861 5.2286415,5.2286415 0 0 0 5.22875,-5.22861 z" />
  <path
     style="fill:#cb9f6f;fill-opacity:1;stroke-width:0.461122;stroke-linecap:round;stroke-linejoin:round;stroke-miterlimit:3.6"
     d="m 26.834786,73.243579 4.225,3.04973 c 0,0 -2.89641,-0.15618 -4.225,-3.04973 z"
     id="path28"
     sodipodi:nodetypes="ccc" />
  <path
     style="fill:#cb9f6f;fill-opacity:1;stroke-width:0.461122;stroke-linecap:round;stroke-linejoin:round;stroke-miterlimit:3.6"
     d="m 36.385556,73.243579 -4.22498,3.04973 c 0,0 2.89641,-0.15618 4.22498,-3.04973 z"
     id="path29"
     sodipodi:nodetypes="ccc" />
  <g
     id="g81"
     transform="matrix(0.69063701,0,0,0.69063701,-5.1099439,-42.928271)">
    <circle
       style="fill:#ffffff;fill-opacity:1;stroke:none;stroke-width:0.665066;stroke-linejoin:round;stroke-miterlimit:3.6;stroke-dasharray:none"
       id="path13"
       cx="63.869572"
       cy="159.03125"
       r="4.2557659" />
    <circle
       style="fill:#000000;fill-opacity:1;stroke:none;stroke-width:0.200414;stroke-linejoin:round;stroke-miterlimit:3.6;stroke-dasharray:none"
       id="path13-6"
       cx="63.869572"
       cy="159.03125"
       r="1.2824504" />
    <path
       style="fill:#000000;fill-opacity:0;stroke:#992525;stroke-width:0.133013;stroke-linejoin:round;stroke-miterlimit:3.6;stroke-dasharray:none;stroke-opacity:1"
       d="m 62.778886,159.70586 -1.136197,0.65598 0.284281,1.06094 -1.870265,-0.50113"
       id="path24" />
    <path
       style="fill:#000000;fill-opacity:0;stroke:#7b1f1f;stroke-width:0.133013;stroke-linejoin:round;stroke-miterlimit:3.6;stroke-dasharray:none;stroke-opacity:1"
       d="m 61.92697,161.42278 0.405054,0.70158 0.480114,-0.40262"
       id="path30" />
    <path
       style="fill:#000000;fill-opacity:0;stroke:#7b1f1f;stroke-width:0.133013;stroke-linejoin:round;stroke-miterlimit:3.6;stroke-dasharray:none;stroke-opacity:1"
       d="m 62.587123,159.03126 -1.290587,0.74512 -0.722705,-0.21588 0.176808,0.65986 -0.711149,-0.21042 0.286477,-1.06915 -0.703015,-0.18837"
       id="path31" />
    <path
       style="fill:#000000;fill-opacity:0;stroke:#7b1f1f;stroke-width:0.133013;stroke-linejoin:round;stroke-miterlimit:3.6;stroke-dasharray:none;stroke-opacity:1"
       d="m 60.573831,159.5605 0.539225,-0.84026 -0.446305,-0.4463 -0.932073,-0.24975"
       id="path32" />
    <path
       style="fill:#000000;fill-opacity:0;stroke:#7b1f1f;stroke-width:0.133013;stroke-linejoin:round;stroke-miterlimit:3.6;stroke-dasharray:none;stroke-opacity:1"
       d="m 60.750639,160.22036 0.428921,0.21947"
       id="path33" />
    <path
       style="fill:#000000;fill-opacity:0;stroke:#7b1f1f;stroke-width:0.133013;stroke-linejoin:round;stroke-miterlimit:3.6;stroke-dasharray:none;stroke-opacity:1"
       d="m 62.860884,158.23928 v -1.04322 l 0.52671,-0.91229 h -1.701589"
       id="path34" />
    <path
       style="fill:#000000;fill-opacity:0;stroke:#7b1f1f;stroke-width:0.133013;stroke-linejoin:round;stroke-miterlimit:3.6;stroke-dasharray:none;stroke-opacity:1"
       d="m 64.656203,157.95995 h 0.957499 l 0.998128,-0.57627 v 0.69172 l 0.771087,0.77108"
       id="path35" />
    <path
       style="fill:#000000;fill-opacity:0;stroke:#7b1f1f;stroke-width:0.133013;stroke-linejoin:round;stroke-miterlimit:3.6;stroke-dasharray:none;stroke-opacity:1"
       d="m 65.613701,157.95995 -0.461677,-0.86159 v -1.3874"
       id="path36" />
    <path
       style="fill:#000000;fill-opacity:0;stroke:#7b1f1f;stroke-width:0.133013;stroke-linejoin:round;stroke-miterlimit:3.6;stroke-dasharray:none;stroke-opacity:1"
       d="m 65.152024,159.48752 1.505833,0.40348 0.330481,1.23338 -1.316016,1.05458"
       id="path37" />
    <path
       style="fill:#000000;fill-opacity:0;stroke:#7b1f1f;stroke-width:0.133013;stroke-linejoin:round;stroke-miterlimit:3.6;stroke-dasharray:none;stroke-opacity:1"
       d="M 67.719724,159.27793 Z"
       id="path38" />
    <path
       style="fill:#000000;fill-opacity:0;stroke:#7b1f1f;stroke-width:0.133013;stroke-linejoin:round;stroke-miterlimit:3.6;stroke-dasharray:none;stroke-opacity:1"
       d="m 64.538898,160.12519 0.559169,2.08684 -0.692917,0.69292 -1.219492,0.32676"
       id="path39" />
    <path
       style="fill:#000000;fill-opacity:0;stroke:#7b1f1f;stroke-width:0.133013;stroke-linejoin:round;stroke-miterlimit:3.6;stroke-dasharray:none;stroke-opacity:1"
       d="m 65.098066,162.21203 -1.228493,0.0647 h -0.835254"
       id="path40" />
    <path
       style="fill:#000000;fill-opacity:0;stroke:#7b1f1f;stroke-width:0.133013;stroke-linejoin:round;stroke-miterlimit:3.6;stroke-dasharray:none;stroke-opacity:1"
       d="m 62.860882,157.19606 -1.220356,0.32699 -0.920183,-0.81704"
       id="path54" />
    <path
       style="fill:#000000;fill-opacity:0;stroke:#7b1f1f;stroke-width:0.133013;stroke-linejoin:round;stroke-miterlimit:3.6;stroke-dasharray:none;stroke-opacity:1"
       d="m 63.869573,157.7488 v -1.01515 l 0.551092,-0.5511 -0.685565,-0.68556"
       id="path55" />
  </g>
  <path
     style="fill:#e5522a;fill-opacity:1;stroke-width:0.899817;stroke-linecap:round;stroke-linejoin:round;stroke-miterlimit:3.6"
     d="M 61.462846,66.164699 H 5.8725361 l -0.8528,-0.18689 0.8528,-0.51993 -0.60559,-0.40827 0.40156,-0.27939 11.9303699,-4.99146 16.02964,-27.76417 13.63504,29.27297 z"
     id="path26"
     sodipodi:nodetypes="cccccccccc" />
  <path
     style="fill:#ba3817;fill-opacity:1;stroke-width:0.461122;stroke-linecap:round;stroke-linejoin:round;stroke-miterlimit:3.6"
     d="m 33.628516,32.014599 9.15049,34.1501 h 18.68384 l -11.40079,-5.89005 -0.69768,0.87547 -1.28404,-0.50391 -1.0288,-1.03401 0.18324,-1.0325 -0.95799,-1.25185 1.30372,-1.1477 z"
     id="path27"
     sodipodi:nodetypes="ccccccccccc" />
  <path
     style="fill:#fac995;fill-opacity:1;stroke:#7b1f1f;stroke-width:0.138127;stroke-linejoin:round;stroke-miterlimit:3.6;stroke-dasharray:none;stroke-opacity:1"
     d="m 28.007286,90.495499 c -3.54605,-2.29579 -9.96524,1.49226 -9.96524,1.49226 2.86973,-4.78561 -5.28031,-14.54734 -5.28031,-14.54734 l -1.74402,6.78176 c 0,0 -2.4130599,10.05652 3.62942,13.54516 0,0 4.66197,2.19829 11.11753,-1.64716 0,0 5.32594,1.00664 8.4915,-1.26608 0,0 -1.94483,-4.06633 -1.36068,-5.07813 z"
     id="path58" />
  <path
     style="fill:#fac995;fill-opacity:1;stroke:#7b1f1f;stroke-width:0.138127;stroke-linejoin:round;stroke-miterlimit:3.6;stroke-dasharray:none;stroke-opacity:1"
     d="m 33.702196,93.589319 c 0,0 -2.66329,1.60432 -4.5449,1.28508"
     id="path79" />
  <path
     style="fill:#fac995;fill-opacity:1;stroke:#7b1f1f;stroke-width:0.138127;stroke-linejoin:round;stroke-miterlimit:3.6;stroke-dasharray:none;stroke-opacity:1"
     d="m 33.009576,92.378459 c 0,0 -2.57888,1.33929 -4.0228,1.33929"
     id="path80" />
  <path
     style="fill:#fac995;fill-opacity:1;stroke:#7b1f1f;stroke-width:0.138127;stroke-linejoin:round;stroke-miterlimit:3.6;stroke-dasharray:none;stroke-opacity:1"
     d="m 32.844736,91.059479 c 0,0 -1.9304,1.25811 -3.69899,1.25811"
     id="path81" />
  <path
     style="fill:#fac995;fill-opacity:1;stroke:#7b1f1f;stroke-width:0.138127;stroke-linejoin:round;stroke-miterlimit:3.6;stroke-dasharray:none;stroke-opacity:1"
     d="m 29.163346,95.668319 c 0,0 2.28316,-0.20054 3.61232,-0.96793 l -0.33712,-1.25814 c 0,0 -1.76633,0.81989 -3.28125,0.81989"
     id="path78" />
  <path
     style="fill:#f5aa2a;fill-opacity:1;stroke:#bc1515;stroke-width:0.276255;stroke-linecap:round;stroke-linejoin:round;stroke-miterlimit:3.6;stroke-dasharray:none;stroke-opacity:1"
     d="m 34.333246,80.238209 c 1.93095,-0.5174 1.99681,0.4041 1.99681,0.4041 -1.47869,0.85373 -1.0368,1.79581 -1.0368,1.79581 -1.4031,0.37596 -1.57315,2.72478 -1.57315,2.72478 1.23342,-1.72964 2.62768,-0.70408 2.62768,-0.70408 -2.02099,2.02099 -0.93774,3.49971 -0.93774,3.49971 -4.49605,2.59579 -7.59111,0 -7.59111,0 0,0 -2.19867,-1.19416 -1.72027,-2.97958 0,0 1.25705,1.84899 1.80103,1.71978 0,0 0.46676,-2.71353 -1.16409,-4.34438 0,0 2.43697,-0.12526 2.43697,1.40697 0,0 -2.02619,-3.02242 -0.72892,-3.94305 0,0 -0.0109,0.71066 0.2636,0.61375 0,0 1.58283,-1.19519 0.98523,-1.79279 0,0 1.67314,-0.11654 0.71065,1.55052 0,0 2.08354,-0.82371 2.08354,-1.51822 0,0 1.59776,0.47679 0.4384,1.63614 0,0 1.22363,-0.90184 0.77798,-1.34749 0,0 1.44309,0.20481 0.63019,1.27803 z"
     id="path102" />
  <path
     style="fill:#fac995;fill-opacity:1;stroke:#000000;stroke-width:0.532868;stroke-linecap:round;stroke-linejoin:round;stroke-miterlimit:3.6;stroke-dasharray:none;stroke-opacity:1"
     d="m 23.881876,67.771769 h 5.0583"
     id="path94" />
  <path
     style="fill:none;fill-opacity:1;stroke:#bc1515;stroke-width:0.276255;stroke-linecap:round;stroke-linejoin:round;stroke-miterlimit:3.6;stroke-dasharray:none;stroke-opacity:1"
     d="m 22.671426,70.755799 v -1.26919 h 2.32578 l 0.91033,-1.57673 2.42276,-0.86887 0.73818,-0.73819"
     id="path95" />
  <path
     style="fill:none;fill-opacity:1;stroke:#bc1515;stroke-width:0.44997;stroke-linecap:round;stroke-linejoin:round;stroke-miterlimit:3.6;stroke-dasharray:none;stroke-opacity:1"
     d="m 29.509946,87.382829 4.9101,-6.40576 -5.6289,0.0425 4.92076,6.14395"
     id="path100" />
  <circle
     style="fill:none;fill-opacity:1;stroke:#bc1515;stroke-width:0.414382;stroke-linecap:round;stroke-linejoin:round;stroke-miterlimit:3.6;stroke-dasharray:none;stroke-opacity:1"
     id="path101"
     cx="31.605581"
     cy="82.273293"
     r="0.74295956" />
  <path
     style="fill:none;fill-opacity:1;stroke:#7b1f1f;stroke-width:0.276255;stroke-linecap:round;stroke-linejoin:round;stroke-miterlimit:3.6;stroke-dasharray:none;stroke-opacity:1"
     d="m 13.217516,84.637019 c 0,0 5.12079,4.0039 1.92828,7.19639"
     id="path103" />
  <path
     style="fill:none;fill-opacity:1;stroke:#7b1f1f;stroke-width:0.276255;stroke-linecap:round;stroke-linejoin:round;stroke-miterlimit:3.6;stroke-dasharray:none;stroke-opacity:1"
     d="m 17.804496,94.985829 c 0,0 4.82848,-3.32552 7.79509,-2.08869"
     id="path112" />
</svg>
