<?xml version="1.0" encoding="UTF-8" standalone="no"?>
<!-- Created with Inkscape (http://www.inkscape.org/) -->

<svg
   width="65.6894mm"
   height="115.7973mm"
   viewBox="0 0 65.6894 115.7973"
   version="1.1"
   id="svg1"
   inkscape:version="1.3.2 (091e20e, 2023-11-25, custom)"
   sodipodi:docname="magos (1).svg"
   xmlns:inkscape="http://www.inkscape.org/namespaces/inkscape"
   xmlns:sodipodi="http://sodipodi.sourceforge.net/DTD/sodipodi-0.dtd"
   xmlns="http://www.w3.org/2000/svg"
   xmlns:svg="http://www.w3.org/2000/svg">
  <sodipodi:namedview
     id="namedview1"
     pagecolor="#505050"
     bordercolor="#eeeeee"
     borderopacity="1"
     inkscape:showpageshadow="0"
     inkscape:pageopacity="0"
     inkscape:pagecheckerboard="0"
     inkscape:deskcolor="#505050"
     inkscape:document-units="mm"
     inkscape:zoom="1.1256296"
     inkscape:cx="2802.4316"
     inkscape:cy="799.99673"
     inkscape:window-width="1920"
     inkscape:window-height="991"
     inkscape:window-x="-9"
     inkscape:window-y="-9"
     inkscape:window-maximized="1"
     inkscape:current-layer="svg1" />
  <defs
     id="defs1" />
  <g
     inkscape:label="Capa 1"
     inkscape:groupmode="layer"
     id="layer1"
     transform="translate(-775.69826,-174.52908)">
    <rect
       style="fill:#ac29c1;fill-opacity:1;stroke:#9424a8;stroke-width:1.10737;stroke-linecap:butt;stroke-linejoin:round;stroke-miterlimit:3.6;stroke-dasharray:none;stroke-opacity:1"
       id="rect127-2-3"
       width="64.582054"
       height="111.5556"
       x="776.25195"
       y="178.21709"
       inkscape:export-filename="..\Desktop\REPOSITORIOS_Y_PROYECTOS\WizardWarClient\public\images\decks\5.svg"
       inkscape:export-xdpi="96"
       inkscape:export-ydpi="96" />
    <rect
       style="fill:#dddddd;fill-opacity:1;stroke:#fdfdfd;stroke-width:2.523;stroke-linecap:butt;stroke-linejoin:round;stroke-miterlimit:3.6;stroke-dasharray:none;stroke-opacity:1"
       id="rect128-5-8"
       width="59.194813"
       height="76.947731"
       x="778.94562"
       y="175.79057" />
    <rect
       style="fill:#ececec;fill-opacity:1;stroke:#bcbcbc;stroke-width:2.523;stroke-linecap:butt;stroke-linejoin:round;stroke-miterlimit:3.6;stroke-dasharray:none;stroke-opacity:1"
       id="rect129-0-1"
       width="59.194813"
       height="76.947731"
       x="778.94562"
       y="183.40939" />
    <rect
       style="fill:#dddddd;fill-opacity:1;stroke:#fdfdfd;stroke-width:2.523;stroke-linecap:butt;stroke-linejoin:round;stroke-miterlimit:3.6;stroke-dasharray:none;stroke-opacity:1"
       id="rect130-1-7"
       width="59.194813"
       height="76.947731"
       x="778.94562"
       y="191.36938" />
    <rect
       style="fill:#bb2cd2;fill-opacity:1;stroke:#9424a8;stroke-width:0.499999;stroke-linecap:butt;stroke-linejoin:round;stroke-miterlimit:3.6;stroke-dasharray:none;stroke-opacity:1"
       id="rect131-7-0"
       width="64.582054"
       height="90.971191"
       x="776.25195"
       y="198.80151" />
  </g>
  <path
     style="fill:#9f25b1;fill-opacity:1;stroke:#841d93;stroke-width:1.42482;stroke-linecap:round;stroke-linejoin:round;stroke-miterlimit:14.7;stroke-dasharray:none;stroke-opacity:1;paint-order:markers fill stroke"
     d="m 33.59996,100.55269 -1.73249,5.86087 H 19.76035 l 4.356,-15.444768 2.86614,1.65478 h 12.19714 l 4.96328,-2.86555 5.33547,16.655538 H 37.37125 l -1.73248,-5.86087 z"
     id="path90-7" />
  <path
     style="fill:#a9754d;fill-opacity:1;stroke:#8b603f;stroke-width:2.37468;stroke-linecap:round;stroke-linejoin:round;stroke-miterlimit:14.7;stroke-opacity:1;paint-order:markers fill stroke"
     d="M 39.17963,92.623572 H 26.98249 l -9.92656,-5.7311 -4.36078,-16.27465 10.79962,-6.23517 3.94974,14.7406 h 11.90256 l -12.36458,13.50032"
     id="path87-4" />
  <path
     style="fill:#000000;fill-opacity:0;stroke:#3a281a;stroke-width:2.37468;stroke-linecap:round;stroke-linejoin:round;stroke-miterlimit:14.7;paint-order:markers fill stroke"
     d="M 26.98249,92.623572 39.34707,79.123252"
     id="path88-0" />
  <path
     style="fill:#a9754d;fill-opacity:1;stroke:#8b603f;stroke-width:2.37468;stroke-linecap:round;stroke-linejoin:round;stroke-miterlimit:14.7;stroke-opacity:1;paint-order:markers fill stroke"
     d="m 23.49479,64.382652 3.94972,14.7406 h 11.90256 l 3.90603,-14.57747 z"
     id="path86-1" />
  <path
     style="fill:#000000;fill-opacity:0;stroke:#8b603f;stroke-width:1.30079;stroke-linecap:round;stroke-linejoin:round;stroke-miterlimit:14.7;stroke-dasharray:none;stroke-opacity:1;paint-order:markers fill stroke"
     d="m 27.83751,73.882342 h 3.38835 l 1.04525,-7.52213"
     id="path89-9"
     sodipodi:nodetypes="ccc" />
  <path
     style="fill:#a9754d;fill-opacity:1;stroke:#8b603f;stroke-width:2.37468;stroke-linecap:round;stroke-linejoin:round;stroke-miterlimit:14.7;stroke-opacity:1;paint-order:markers fill stroke"
     d="m 26.98249,92.623572 h 12.19714 l 9.92655,-5.7311 4.36079,-16.27465 -10.21387,-6.07204 -3.90603,14.57747 z"
     id="path87-3-5"
     sodipodi:nodetypes="cccccc" />
  <path
     style="fill:#000000;fill-opacity:0;stroke:#8b603f;stroke-width:1.30079;stroke-linecap:round;stroke-linejoin:round;stroke-miterlimit:14.7;stroke-dasharray:none;stroke-opacity:1;paint-order:markers fill stroke"
     d="M 38.68394,73.882342 H 35.2956 l -1.04526,-7.52213"
     id="path89-8-8"
     sodipodi:nodetypes="ccc" />
  <path
     style="fill:#9f25b1;fill-opacity:1;stroke-width:0.698529;stroke-linecap:round;stroke-linejoin:round;stroke-miterlimit:3.6"
     d="M 55.49795,52.990752 H 8.79052 l 12.65575,-4.95742 12.44384,-21.55337 12.62728,21.87113 z"
     id="path108-2-6"
     sodipodi:nodetypes="cccccc" />
  <path
     style="fill:#841d93;fill-opacity:1;stroke-width:0.357971;stroke-linecap:round;stroke-linejoin:round;stroke-miterlimit:3.6"
     d="m 33.89011,26.479962 7.10355,26.51079 h 14.50429 l -8.98056,-4.63966 z"
     id="path109-8-7" />
  <path
     style="fill:#000000;fill-opacity:0;stroke:#8b603f;stroke-width:1.42482;stroke-linecap:round;stroke-linejoin:round;stroke-miterlimit:14.7;stroke-dasharray:none;stroke-opacity:1;paint-order:markers fill stroke"
     d="m 21.53541,59.932862 -3.44044,7.56738"
     id="path91-0" />
  <path
     style="fill:#a9754d;fill-opacity:1;stroke:#8b603f;stroke-width:1.42482;stroke-linecap:round;stroke-linejoin:round;stroke-miterlimit:14.7;stroke-dasharray:none;stroke-opacity:1;paint-order:markers fill stroke"
     d="m 45.19569,58.867842 2.87146,8.6324 -4.81405,-2.95446 -19.75833,-0.16313 -5.3998,3.11759 3.44044,-7.56738 z"
     id="path94-4" />
  <path
     style="fill:#afafaf;fill-opacity:1;stroke-width:0.373263;stroke-linecap:round;stroke-linejoin:round;stroke-miterlimit:3.6"
     d="m 20.18476,52.990762 h 25.6556 c 0,0 0.64909,3.42535 -0.64466,5.87708 -0.8843,1.67581 -1.27771,1.19811 -1.9765,2.67181 -0.70586,1.48861 -1.55237,1.18102 -1.8661,1.92638 -0.74461,1.76915 -2.38954,1.09067 -2.72797,1.55399 -0.81191,1.11151 -2.22805,1.0114 -2.62743,1.29958 -1.04136,0.75141 -2.47065,-4.7e-4 -3.75054,0.42646 -3.28657,1.09692 -3.37778,-1.02626 -4.42748,-1.01477 -1.16142,0.0127 -1.20355,-1.29039 -2.30223,-1.61102 -1.40288,-0.40941 -1.4632,-1.1808 -2.29838,-1.61484 -1.49972,-0.77938 -1.46002,-1.64431 -1.68366,-2.57257 -0.46117,-1.91405 -1.13038,-1.20194 -1.02699,-2.16765 0.0977,-0.91256 -1.29261,-0.82369 -0.32366,-4.77446 z"
     id="path106-9-3"
     sodipodi:nodetypes="ccssssssssssscc" />
  <path
     id="path107-0-8"
     style="fill:#a9754d;fill-opacity:1;stroke-width:0.28182;stroke-linecap:round;stroke-linejoin:round;stroke-miterlimit:3.6"
     d="m 37.83022,52.990762 h -9.63533 a 4.8176327,4.8176327 0 0 0 4.81759,4.81761 4.8176327,4.8176327 0 0 0 4.81774,-4.81761 z" />
  <path
     style="fill:#cb9f6f;fill-opacity:1;stroke-width:0.424875;stroke-linecap:round;stroke-linejoin:round;stroke-miterlimit:3.6"
     d="m 28.62139,54.972522 3.89287,2.81001 c 0,0 -2.66873,-0.14392 -3.89287,-2.81001 z"
     id="path110-2-0"
     sodipodi:nodetypes="ccc" />
  <path
     style="fill:#cb9f6f;fill-opacity:1;stroke-width:0.424875;stroke-linecap:round;stroke-linejoin:round;stroke-miterlimit:3.6"
     d="m 37.42141,54.972522 -3.89288,2.81001 c 0,0 2.66874,-0.14392 3.89288,-2.81001 z"
     id="path111-0-7"
     sodipodi:nodetypes="ccc" />
  <path
     style="fill:#a9754d;fill-opacity:1;stroke:#8b603f;stroke-width:1.42482;stroke-linecap:round;stroke-linejoin:round;stroke-miterlimit:14.7;stroke-dasharray:none;stroke-opacity:1;paint-order:markers fill stroke"
     d="m 21.97818,82.020442 c 0,0 0.22443,-4.37172 -0.29486,-6.2813 -0.45746,-1.68212 -2.63536,-4.49381 -2.63536,-4.49381"
     id="path95-6"
     sodipodi:nodetypes="csc" />
  <path
     style="fill:#a9754d;fill-opacity:1;stroke:#8b603f;stroke-width:1.42482;stroke-linecap:round;stroke-linejoin:round;stroke-miterlimit:14.7;stroke-dasharray:none;stroke-opacity:1;paint-order:markers fill stroke"
     d="m 48.0671,71.854272 c 0,0 -2.38022,3.6738 -2.88528,5.58718 -0.44491,1.68549 0.0354,5.20944 0.0354,5.20944"
     id="path95-3-0"
     sodipodi:nodetypes="csc" />
  <path
     style="fill:#a9754d;fill-opacity:1;stroke:#8b603f;stroke-width:0.786237;stroke-linecap:round;stroke-linejoin:round;stroke-miterlimit:14.7;stroke-dasharray:none;stroke-opacity:1;paint-order:markers fill stroke"
     d="m 41.89452,85.310732 c 0,0 -2.41239,-0.12384 -3.46614,0.16271 -0.92824,0.25243 -2.47977,1.45425 -2.47977,1.45425"
     id="path95-3-4-4"
     sodipodi:nodetypes="csc" />
  <path
     style="fill:#a9754d;fill-opacity:1;stroke:#8b603f;stroke-width:0.786237;stroke-linecap:round;stroke-linejoin:round;stroke-miterlimit:14.7;stroke-dasharray:none;stroke-opacity:1;paint-order:markers fill stroke"
     d="m 29.59682,86.421502 c 0,0 -1.61826,-1.79338 -2.56599,-2.33586 -0.83484,-0.47786 -2.78176,-0.72516 -2.78176,-0.72516"
     id="path95-3-4-5-4"
     sodipodi:nodetypes="csc" />
</svg>
