<?xml version="1.0" encoding="UTF-8" standalone="no"?>
<!-- Created with Inkscape (http://www.inkscape.org/) -->

<svg
   width="65.68943mm"
   height="115.7973mm"
   viewBox="0 0 65.68943 115.7973"
   version="1.1"
   id="svg1"
   inkscape:version="1.3.2 (091e20e, 2023-11-25, custom)"
   sodipodi:docname="magos.svg"
   xmlns:inkscape="http://www.inkscape.org/namespaces/inkscape"
   xmlns:sodipodi="http://sodipodi.sourceforge.net/DTD/sodipodi-0.dtd"
   xmlns="http://www.w3.org/2000/svg"
   xmlns:svg="http://www.w3.org/2000/svg">
  <sodipodi:namedview
     id="namedview1"
     pagecolor="#505050"
     bordercolor="#eeeeee"
     borderopacity="1"
     inkscape:showpageshadow="0"
     inkscape:pageopacity="0"
     inkscape:pagecheckerboard="0"
     inkscape:deskcolor="#505050"
     inkscape:document-units="mm"
     inkscape:zoom="1"
     inkscape:cx="1478"
     inkscape:cy="861.5"
     inkscape:window-width="1920"
     inkscape:window-height="1017"
     inkscape:window-x="-8"
     inkscape:window-y="-8"
     inkscape:window-maximized="1"
     inkscape:current-layer="layer1" />
  <defs
     id="defs1" />
  <rect
     style="fill:#c2e1eb;fill-opacity:1;stroke:#60c0da;stroke-width:1.10737;stroke-linecap:butt;stroke-linejoin:round;stroke-miterlimit:3.6;stroke-dasharray:none;stroke-opacity:1"
     id="rect88-1"
     width="64.582054"
     height="111.5556"
     x="0.55370378"
     y="3.6879969" />
  <rect
     style="fill:#dddddd;fill-opacity:1;stroke:#fdfdfd;stroke-width:2.523;stroke-linecap:butt;stroke-linejoin:round;stroke-miterlimit:3.6;stroke-dasharray:none;stroke-opacity:1"
     id="rect91-2"
     width="59.194813"
     height="76.947731"
     x="3.2473378"
     y="1.2614833" />
  <rect
     style="fill:#ececec;fill-opacity:1;stroke:#bcbcbc;stroke-width:2.523;stroke-linecap:butt;stroke-linejoin:round;stroke-miterlimit:3.6;stroke-dasharray:none;stroke-opacity:1"
     id="rect90-7"
     width="59.194813"
     height="76.947731"
     x="3.2473378"
     y="8.8803186" />
  <rect
     style="fill:#dddddd;fill-opacity:1;stroke:#fdfdfd;stroke-width:2.523;stroke-linecap:butt;stroke-linejoin:round;stroke-miterlimit:3.6;stroke-dasharray:none;stroke-opacity:1"
     id="rect89-9"
     width="59.194813"
     height="76.947731"
     x="3.2473378"
     y="16.840311" />
  <rect
     style="fill:#c2e1eb;fill-opacity:1;stroke:#60c0da;stroke-width:0.499999;stroke-linecap:butt;stroke-linejoin:round;stroke-miterlimit:3.6;stroke-dasharray:none;stroke-opacity:1"
     id="rect87-9"
     width="64.582054"
     height="90.971191"
     x="0.55370378"
     y="24.27244" />
  <rect
     style="fill:#2586a0;fill-opacity:1;stroke:#36b0d0;stroke-width:0.579764;stroke-linecap:round;stroke-linejoin:round;stroke-miterlimit:3.6;stroke-dasharray:none;stroke-opacity:1"
     id="rect93"
     width="24.336393"
     height="40.033405"
     x="21.214958"
     y="66.029671" />
  <rect
     style="fill:#72c7dd;fill-opacity:1;stroke:#36b0d0;stroke-width:0.339568;stroke-linecap:round;stroke-linejoin:round;stroke-miterlimit:3.6;stroke-dasharray:none;stroke-opacity:1"
     id="rect93-4"
     width="24.336393"
     height="13.733297"
     x="21.777214"
     y="52.296364" />
  <path
     style="fill:#2586a0;fill-opacity:1;stroke:#36b0d0;stroke-width:0.617963;stroke-linecap:round;stroke-linejoin:round;stroke-miterlimit:3.6;stroke-dasharray:none;stroke-opacity:1"
     d="M 21.257507,106.0205 35.857177,66.048776"
     id="path114" />
  <path
     style="fill:#8fd3e5;fill-opacity:1;stroke:#36b0d0;stroke-width:1.85389;stroke-linecap:round;stroke-linejoin:round;stroke-miterlimit:3.6;stroke-dasharray:none;stroke-opacity:1"
     d="m 21.815177,65.507026 -10.75208,10.75208 8.86932,1.04052 -2.48076,7.28367 10.43129,-6.0225 6.61706,9.95338 1.91943,-11.09893 10.48584,7.39927 -2.79299,-10.42354 c 0,0 8.75836,2.9658 8.33558,2.23352 -0.42276,-0.73227 -6.92271,-11.1812 -6.92271,-11.1812 z"
     id="path87"
     sodipodi:nodetypes="cccccccccscc" />
  <path
     style="fill:#8fd3e5;fill-opacity:1;stroke-width:0.708766;stroke-linecap:round;stroke-linejoin:round;stroke-miterlimit:3.6"
     d="M 55.307647,53.185006 H 7.915727 l 12.84122,-5.03007 12.6262,-21.86924 12.81234,22.19165 z"
     id="path108-8"
     sodipodi:nodetypes="cccccc" />
  <path
     style="fill:#2586a0;fill-opacity:1;stroke-width:0.363216;stroke-linecap:round;stroke-linejoin:round;stroke-miterlimit:3.6"
     d="m 33.383147,26.285696 7.20765,26.89931 h 14.71685 l -9.11216,-4.70766 z"
     id="path109-5" />
  <path
     id="path107-1"
     style="fill:#72c7dd;fill-opacity:1;stroke-width:0.38284;stroke-linecap:round;stroke-linejoin:round;stroke-miterlimit:3.6"
     d="m 39.789087,64.551476 h -13.08918 a 6.5445351,6.5445351 0 0 0 6.54448,6.54448 6.5445351,6.5445351 0 0 0 6.5447,-6.54448 z" />
  <path
     style="fill:#b1e0ed;fill-opacity:1;stroke-width:0.577173;stroke-linecap:round;stroke-linejoin:round;stroke-miterlimit:3.6"
     d="m 27.279287,67.243596 5.28828,3.81727 c 0,0 -3.62535,-0.19551 -5.28828,-3.81727 z"
     id="path110-6"
     sodipodi:nodetypes="ccc" />
  <path
     style="fill:#b1e0ed;fill-opacity:1;stroke-width:0.577173;stroke-linecap:round;stroke-linejoin:round;stroke-miterlimit:3.6"
     d="m 39.233717,67.243596 -5.28831,3.81727 c 0,0 3.62536,-0.19551 5.28831,-3.81727 z"
     id="path111-0"
     sodipodi:nodetypes="ccc" />
  <path
     style="fill:#2586a0;fill-opacity:1;stroke:#36b0d0;stroke-width:0.617963;stroke-linecap:round;stroke-linejoin:round;stroke-miterlimit:3.6;stroke-dasharray:none;stroke-opacity:1"
     d="M 21.257507,89.287156 V 106.0205 l -10.61757,0.33246 z"
     id="path113" />
  <path
     style="fill:#2586a0;fill-opacity:1;stroke:#36b0d0;stroke-width:0.617963;stroke-linecap:round;stroke-linejoin:round;stroke-miterlimit:3.6;stroke-dasharray:none;stroke-opacity:1"
     d="m 45.508787,89.287156 v 16.733364 l 10.61756,0.33244 z"
     id="path113-1" />
  <path
     sodipodi:type="star"
     style="fill:#2586a0;fill-opacity:1;stroke:#36b0d0;stroke-width:1;stroke-linecap:round;stroke-linejoin:round;stroke-miterlimit:3.6;stroke-dasharray:none;stroke-opacity:1"
     id="path115"
     inkscape:flatsided="true"
     sodipodi:sides="7"
     sodipodi:cx="217.09062"
     sodipodi:cy="321.60104"
     sodipodi:r1="7.3764129"
     sodipodi:r2="6.6459179"
     sodipodi:arg1="0.9391369"
     sodipodi:arg2="1.3879359"
     inkscape:rounded="0.2"
     inkscape:randomized="0.02"
     d="m 221.53537,327.46764 c -1.03746,0.72826 -5.28194,1.59832 -6.50094,1.25132 -1.21901,-0.34699 -4.25267,-3.12769 -4.78974,-4.29491 -0.53707,-1.16722 -0.4194,-5.27749 0.20343,-6.39486 0.62283,-1.11737 3.92314,-3.40377 5.18095,-3.61447 1.25781,-0.2107 5.38978,0.73012 6.38336,1.54483 0.99357,0.81471 2.61134,4.57933 2.53846,5.84857 -0.0729,1.26924 -1.97806,4.93126 -3.01552,5.65952 z"
     inkscape:transform-center-x="-0.12983828"
     inkscape:transform-center-y="-0.044430441"
     transform="matrix(0.61796269,0,0,0.61796269,-106.30475,-138.82749)" />
  <path
     sodipodi:type="star"
     style="fill:#2586a0;fill-opacity:1;stroke:#36b0d0;stroke-width:1;stroke-linecap:round;stroke-linejoin:round;stroke-miterlimit:3.6;stroke-dasharray:none;stroke-opacity:1"
     id="path116"
     inkscape:flatsided="true"
     sodipodi:sides="7"
     sodipodi:cx="230.85214"
     sodipodi:cy="316.39548"
     sodipodi:r1="7.4126225"
     sodipodi:r2="6.6785421"
     sodipodi:arg1="0.77639759"
     sodipodi:arg2="1.2251965"
     inkscape:rounded="0.2"
     inkscape:randomized="0.02"
     d="m 236.18341,321.52118 c -0.89201,0.93568 -4.84977,2.3111 -6.13149,2.1992 -1.28173,-0.1119 -4.67197,-2.34058 -5.35192,-3.42193 -0.67994,-1.08135 -1.20191,-5.15687 -0.79134,-6.36896 0.41056,-1.21209 3.22941,-3.99436 4.43314,-4.43328 1.20372,-0.43891 5.412,-0.10315 6.49991,0.5853 1.0879,0.68846 3.13265,4.16409 3.29642,5.4282 0.16377,1.26411 -1.0627,5.07578 -1.95472,6.01147 z"
     inkscape:transform-center-x="-0.09434421"
     inkscape:transform-center-y="0.070158376"
     transform="matrix(0.61796269,0,0,0.61796269,-103.48643,-137.65473)" />
  <path
     sodipodi:type="star"
     style="fill:#6cc3db;fill-opacity:1;stroke:#36b0d0;stroke-width:1;stroke-linecap:round;stroke-linejoin:round;stroke-miterlimit:3.6;stroke-dasharray:none;stroke-opacity:1"
     id="path116-3"
     inkscape:flatsided="true"
     sodipodi:sides="7"
     sodipodi:cx="230.85214"
     sodipodi:cy="316.39548"
     sodipodi:r1="7.4126225"
     sodipodi:r2="6.6785421"
     sodipodi:arg1="0.77639759"
     sodipodi:arg2="1.2251965"
     inkscape:rounded="0.2"
     inkscape:randomized="0.02"
     d="m 236.18341,321.52118 c -0.89201,0.93568 -4.84977,2.3111 -6.13149,2.1992 -1.28173,-0.1119 -4.67197,-2.34058 -5.35192,-3.42193 -0.67994,-1.08135 -1.20191,-5.15687 -0.79134,-6.36896 0.41056,-1.21209 3.22941,-3.99436 4.43314,-4.43328 1.20372,-0.43891 5.412,-0.10315 6.49991,0.5853 1.0879,0.68846 3.13265,4.16409 3.29642,5.4282 0.16377,1.26411 -1.0627,5.07578 -1.95472,6.01147 z"
     inkscape:transform-center-x="-0.058765581"
     inkscape:transform-center-y="0.043703239"
     transform="matrix(0.38487617,0,0,0.38487617,-49.099103,-63.881024)" />
  <path
     sodipodi:type="star"
     style="fill:#6cc3db;fill-opacity:1;stroke:#36b0d0;stroke-width:1;stroke-linecap:round;stroke-linejoin:round;stroke-miterlimit:3.6;stroke-dasharray:none;stroke-opacity:1"
     id="path116-3-7"
     inkscape:flatsided="true"
     sodipodi:sides="7"
     sodipodi:cx="230.85214"
     sodipodi:cy="316.39548"
     sodipodi:r1="7.4126225"
     sodipodi:r2="6.6785421"
     sodipodi:arg1="0.77639759"
     sodipodi:arg2="1.2251965"
     inkscape:rounded="0.2"
     inkscape:randomized="0.02"
     d="m 236.18341,321.52118 c -0.89201,0.93568 -4.84977,2.3111 -6.13149,2.1992 -1.28173,-0.1119 -4.67197,-2.34058 -5.35192,-3.42193 -0.67994,-1.08135 -1.20191,-5.15687 -0.79134,-6.36896 0.41056,-1.21209 3.22941,-3.99436 4.43314,-4.43328 1.20372,-0.43891 5.412,-0.10315 6.49991,0.5853 1.0879,0.68846 3.13265,4.16409 3.29642,5.4282 0.16377,1.26411 -1.0627,5.07578 -1.95472,6.01147 z"
     inkscape:transform-center-x="-0.058764564"
     inkscape:transform-center-y="0.043699933"
     transform="matrix(0.38487617,0,0,0.38487617,-61.242763,-62.081384)" />
</svg>
