<?xml version="1.0" encoding="UTF-8" standalone="no"?>
<!-- Created with Inkscape (http://www.inkscape.org/) -->

<svg
   width="150mm"
   height="210mm"
   viewBox="0 0 150 210.00008"
   version="1.1"
   id="svg1"
   inkscape:version="1.3.2 (091e20e, 2023-11-25, custom)"
   sodipodi:docname="reverse_card.svg"
   xmlns:inkscape="http://www.inkscape.org/namespaces/inkscape"
   xmlns:sodipodi="http://sodipodi.sourceforge.net/DTD/sodipodi-0.dtd"
   xmlns="http://www.w3.org/2000/svg"
   xmlns:svg="http://www.w3.org/2000/svg">
  <sodipodi:namedview
     id="namedview1"
     pagecolor="#505050"
     bordercolor="#eeeeee"
     borderopacity="1"
     inkscape:showpageshadow="0"
     inkscape:pageopacity="0"
     inkscape:pagecheckerboard="0"
     inkscape:deskcolor="#505050"
     inkscape:document-units="mm"
     inkscape:zoom="0.50144841"
     inkscape:cx="271.21434"
     inkscape:cy="459.66842"
     inkscape:window-width="1440"
     inkscape:window-height="837"
     inkscape:window-x="1912"
     inkscape:window-y="-8"
     inkscape:window-maximized="1"
     inkscape:current-layer="layer1" />
  <defs
     id="defs1" />
  <g
     inkscape:label="Capa 1"
     inkscape:groupmode="layer"
     id="layer1"
     transform="translate(-237.14344,22.649932)">
    <path
       id="rect1"
       style="fill:#eee3d9;fill-opacity:1;stroke:#3a281a;stroke-width:3.5454;stroke-linecap:round;stroke-linejoin:round;stroke-miterlimit:14.7;stroke-dasharray:none;stroke-opacity:1;paint-order:markers fill stroke"
       d="m 285.86415,-14.424778 -0.18578,21.9032178 h -11.48311 l 1.80575,-6.48210686 -13.22767,-13.49223594 -18.29867,4.7093294 -5.07099,18.2015646 13.22804,13.492603 6.8434,-1.761418 V 46.995473 H 238.193 v 53.097947 h 21.28212 v 39.92853 h -10.14235 l -9.44724,16.36356 9.44724,16.36356 h 18.89485 l 9.44761,-16.36356 h 8.0735 l -0.26017,22.11428 53.09429,0.62512 0.26786,-22.7394 h 8.09182 l 9.44724,16.36356 h 18.89485 l 9.44761,-16.36356 -9.44761,-16.36356 h -9.44724 v -39.92853 h 20.2565 V 46.995473 h -20.2565 V 22.806478 l 3.81965,1.683003 15.24376,-11.164687 -2.04724,-18.783452 -17.29062,-7.619132 -15.24376,11.1643206 1.0238,9.3919092 h -12.56444 l 0.18211,-21.4525118 z" />
    <g
       id="g1"
       transform="translate(-0.22931238,5.1068684)">
      <path
         style="fill:#000000;fill-opacity:0;stroke:#3a281a;stroke-width:8.83166;stroke-linecap:round;stroke-linejoin:round;stroke-miterlimit:14.7;paint-order:markers fill stroke"
         d="m 269.95571,135.14209 h 48.5009 l -8.32226,-31.05911"
         id="path1" />
      <path
         style="fill:#000000;fill-opacity:0;stroke:#3a281a;stroke-width:8.83166;stroke-linecap:round;stroke-linejoin:round;stroke-miterlimit:14.7;paint-order:markers fill stroke"
         d="m 310.13435,104.08298 h -29.3645 l -10.81414,31.05911"
         id="path1-9"
         sodipodi:nodetypes="ccc" />
      <path
         style="fill:#000000;fill-opacity:0;stroke:#3a281a;stroke-width:8.83166;stroke-linecap:round;stroke-linejoin:round;stroke-miterlimit:14.7;paint-order:markers fill stroke"
         d="m 271.51567,82.657932 c 0,0 2.8105,5.999446 13.65781,3.659603"
         id="path2" />
      <path
         style="fill:#000000;fill-opacity:0;stroke:#3a281a;stroke-width:8.83166;stroke-linecap:round;stroke-linejoin:round;stroke-miterlimit:14.7;paint-order:markers fill stroke"
         d="m 316.74844,84.301373 c 0,0 -2.8105,5.999457 -13.65781,3.65961"
         id="path2-8" />
      <path
         style="fill:#000000;fill-opacity:0;stroke:#3a281a;stroke-width:8.83166;stroke-linecap:round;stroke-linejoin:round;stroke-miterlimit:14.7;paint-order:markers fill stroke"
         d="m 303.09063,87.960983 c 0,0 -4.26752,5.067616 -14.13963,0"
         id="path2-8-6" />
      <path
         style="fill:#000000;fill-opacity:0;stroke:#3a281a;stroke-width:8.83166;stroke-linecap:round;stroke-linejoin:round;stroke-miterlimit:14.7;paint-order:markers fill stroke"
         d="m 266.98625,65.414448 h 58.06911"
         id="path3" />
      <path
         style="fill:#000000;fill-opacity:0;stroke:#3a281a;stroke-width:8.83166;stroke-linecap:round;stroke-linejoin:round;stroke-miterlimit:14.7;paint-order:markers fill stroke"
         d="m 277.54428,51.227109 18.47654,-36.788098 18.52935,38.272823"
         id="path4" />
      <path
         style="fill:#000000;fill-opacity:0;stroke:#3a281a;stroke-width:8.83166;stroke-linecap:round;stroke-linejoin:round;stroke-miterlimit:14.7;paint-order:markers fill stroke"
         d="M 344.70381,140.04683 V 54.891807 l -15.23261,-12.364983 3.82807,-14.286602 13.38678,-3.586974 11.07319,11.80774"
         id="path5" />
    </g>
  </g>
</svg>
